<svg width="179" height="19" viewBox="0 0 179 19" fill="none" xmlns="http://www.w3.org/2000/svg">
<path d="M4.6108 14.6705V4.84091H6.84091V14.6705H4.6108ZM0.81108 10.8707V8.64062H10.6406V10.8707H0.81108ZM19.6658 2.45455V17H17.0309V5.01847H16.9457L13.5437 7.19176V4.77699L17.1587 2.45455H19.6658ZM28.9876 9.72727C28.9876 7.9517 29.2219 6.32055 29.6907 4.83381C30.1642 3.34233 30.8673 1.96449 31.8001 0.700284H34.2219C33.8621 1.16903 33.5259 1.74432 33.2134 2.42614C32.9009 3.10322 32.6287 3.84659 32.3967 4.65625C32.1694 5.46117 31.9895 6.29687 31.8569 7.16335C31.729 8.02983 31.6651 8.88447 31.6651 9.72727C31.6651 10.8494 31.7764 11.9858 31.9989 13.1364C32.2262 14.2869 32.5316 15.3546 32.9151 16.3395C33.3034 17.3196 33.739 18.1222 34.2219 18.7472H31.8001C30.8673 17.483 30.1642 16.1075 29.6907 14.6207C29.2219 13.1293 28.9876 11.4981 28.9876 9.72727ZM41.5178 17.1989C40.8217 17.1941 40.1423 17.0734 39.4794 16.8366C38.8165 16.5952 38.2199 16.2045 37.6896 15.6648C37.1593 15.1203 36.7379 14.3982 36.4254 13.4986C36.1129 12.5942 35.959 11.4744 35.9638 10.1392C35.9638 8.89394 36.0964 7.78362 36.3615 6.80824C36.6267 5.83286 37.0078 5.009 37.505 4.33665C38.0021 3.65956 38.6011 3.14347 39.3018 2.78835C40.0073 2.43324 40.7957 2.25568 41.6669 2.25568C42.5807 2.25568 43.3904 2.43561 44.0959 2.79545C44.8061 3.1553 45.379 3.64773 45.8146 4.27273C46.2502 4.89299 46.5201 5.59375 46.6243 6.375H44.032C43.8994 5.81629 43.6271 5.37121 43.2152 5.03977C42.808 4.7036 42.2919 4.53551 41.6669 4.53551C40.6584 4.53551 39.8819 4.97348 39.3374 5.84943C38.7976 6.72538 38.5253 7.92803 38.5206 9.45739H38.62C38.852 9.04072 39.1527 8.68324 39.522 8.38494C39.8913 8.08665 40.308 7.85701 40.772 7.69602C41.2408 7.5303 41.7356 7.44744 42.2564 7.44744C43.1087 7.44744 43.8733 7.65104 44.5504 8.05824C45.2322 8.46544 45.772 9.02651 46.1697 9.74148C46.5675 10.4517 46.764 11.2661 46.7592 12.1847C46.764 13.1411 46.5462 14.0005 46.1058 14.7628C45.6655 15.5204 45.0523 16.117 44.2663 16.5526C43.4804 16.9882 42.5642 17.2036 41.5178 17.1989ZM41.5036 15.0682C42.0196 15.0682 42.4813 14.9427 42.8885 14.6918C43.2957 14.4408 43.6177 14.1023 43.8544 13.6761C44.0911 13.25 44.2071 12.7718 44.2024 12.2415C44.2071 11.7206 44.0935 11.2495 43.8615 10.8281C43.6342 10.4067 43.3194 10.0729 42.9169 9.8267C42.5144 9.58049 42.0552 9.45739 41.5391 9.45739C41.1555 9.45739 40.7981 9.53078 40.4666 9.67756C40.1352 9.82434 39.8464 10.0279 39.6001 10.2884C39.3539 10.544 39.1598 10.8423 39.0178 11.1832C38.8804 11.5194 38.8094 11.8793 38.8047 12.2628C38.8094 12.7694 38.9278 13.2358 39.1598 13.6619C39.3918 14.0881 39.7114 14.429 40.1186 14.6847C40.5258 14.9403 40.9875 15.0682 41.5036 15.0682ZM49.1598 17V15.0966L54.2095 10.1463C54.6925 9.65862 55.0949 9.22538 55.4169 8.84659C55.7389 8.4678 55.9804 8.10085 56.1413 7.74574C56.3023 7.39062 56.3828 7.01184 56.3828 6.60938C56.3828 6.15009 56.2786 5.7571 56.0703 5.4304C55.862 5.09896 55.5755 4.84328 55.2109 4.66335C54.8464 4.48343 54.4321 4.39347 53.968 4.39347C53.4898 4.39347 53.0708 4.4929 52.7109 4.69176C52.3511 4.88589 52.0717 5.16288 51.8729 5.52273C51.6787 5.88258 51.5817 6.31108 51.5817 6.80824H49.0746C49.0746 5.88494 49.2853 5.08239 49.7067 4.40057C50.1281 3.71875 50.7081 3.19081 51.4467 2.81676C52.1901 2.44271 53.0424 2.25568 54.0036 2.25568C54.9789 2.25568 55.8359 2.43797 56.5746 2.80256C57.3132 3.16714 57.8861 3.66667 58.2933 4.30114C58.7053 4.93561 58.9112 5.66004 58.9112 6.47443C58.9112 7.01894 58.8071 7.55398 58.5987 8.07955C58.3904 8.60511 58.0234 9.1875 57.4979 9.8267C56.977 10.4659 56.2455 11.2401 55.3033 12.1491L52.7962 14.6989V14.7983H59.1314V17H49.1598ZM66.9084 17.1989C66.2124 17.1941 65.5329 17.0734 64.87 16.8366C64.2071 16.5952 63.6106 16.2045 63.0803 15.6648C62.55 15.1203 62.1286 14.3982 61.8161 13.4986C61.5036 12.5942 61.3497 11.4744 61.3544 10.1392C61.3544 8.89394 61.487 7.78362 61.7521 6.80824C62.0173 5.83286 62.3984 5.009 62.8956 4.33665C63.3928 3.65956 63.9917 3.14347 64.6925 2.78835C65.398 2.43324 66.1863 2.25568 67.0575 2.25568C67.9714 2.25568 68.781 2.43561 69.4865 2.79545C70.1967 3.1553 70.7697 3.64773 71.2053 4.27273C71.6409 4.89299 71.9107 5.59375 72.0149 6.375H69.4226C69.29 5.81629 69.0178 5.37121 68.6058 5.03977C68.1986 4.7036 67.6825 4.53551 67.0575 4.53551C66.049 4.53551 65.2725 4.97348 64.728 5.84943C64.1882 6.72538 63.916 7.92803 63.9112 9.45739H64.0107C64.2427 9.04072 64.5433 8.68324 64.9126 8.38494C65.282 8.08665 65.6986 7.85701 66.1626 7.69602C66.6314 7.5303 67.1262 7.44744 67.647 7.44744C68.4993 7.44744 69.264 7.65104 69.9411 8.05824C70.6229 8.46544 71.1626 9.02651 71.5604 9.74148C71.9581 10.4517 72.1546 11.2661 72.1499 12.1847C72.1546 13.1411 71.9368 14.0005 71.4964 14.7628C71.0561 15.5204 70.4429 16.117 69.657 16.5526C68.871 16.9882 67.9548 17.2036 66.9084 17.1989ZM66.8942 15.0682C67.4103 15.0682 67.8719 14.9427 68.2791 14.6918C68.6863 14.4408 69.0083 14.1023 69.245 13.6761C69.4818 13.25 69.5978 12.7718 69.593 12.2415C69.5978 11.7206 69.4841 11.2495 69.2521 10.8281C69.0249 10.4067 68.71 10.0729 68.3075 9.8267C67.9051 9.58049 67.4458 9.45739 66.9297 9.45739C66.5462 9.45739 66.1887 9.53078 65.8572 9.67756C65.5258 9.82434 65.237 10.0279 64.9908 10.2884C64.7446 10.544 64.5504 10.8423 64.4084 11.1832C64.2711 11.5194 64.2 11.8793 64.1953 12.2628C64.2 12.7694 64.3184 13.2358 64.5504 13.6619C64.7824 14.0881 65.102 14.429 65.5092 14.6847C65.9164 14.9403 66.3781 15.0682 66.8942 15.0682ZM79.1669 9.72727C79.1669 11.4981 78.9302 13.1293 78.4567 14.6207C77.9879 16.1075 77.2872 17.483 76.3544 18.7472H73.9325C74.2971 18.2784 74.6333 17.7055 74.9411 17.0284C75.2536 16.3513 75.5234 15.608 75.7507 14.7983C75.9827 13.9886 76.1626 13.1506 76.2905 12.2841C76.4231 11.4176 76.4893 10.5653 76.4893 9.72727C76.4893 8.60511 76.3757 7.46875 76.1484 6.31818C75.9259 5.16761 75.6205 4.0999 75.2322 3.11506C74.8487 2.13021 74.4155 1.32528 73.9325 0.700284H76.3544C77.2872 1.96449 77.9879 3.34233 78.4567 4.83381C78.9302 6.32055 79.1669 7.9517 79.1669 9.72727ZM92.5529 17.1989C91.497 17.1989 90.5595 17.0213 89.7404 16.6662C88.926 16.3111 88.2868 15.8258 87.8228 15.2102C87.3635 14.59 87.1362 13.8868 87.141 13.1009C87.1362 12.4901 87.2688 11.929 87.5387 11.4176C87.8086 10.9062 88.1732 10.4801 88.6325 10.1392C89.0965 9.79356 89.6126 9.57339 90.1808 9.47869V9.37926C89.4326 9.21354 88.8266 8.83239 88.3626 8.2358C87.9033 7.63447 87.676 6.94081 87.6808 6.15483C87.676 5.40672 87.8844 4.73911 88.3058 4.15199C88.7272 3.56487 89.3048 3.10322 90.0387 2.76705C90.7726 2.42614 91.6107 2.25568 92.5529 2.25568C93.4857 2.25568 94.3166 2.42614 95.0458 2.76705C95.7797 3.10322 96.3574 3.56487 96.7788 4.15199C97.2049 4.73911 97.418 5.40672 97.418 6.15483C97.418 6.94081 97.1836 7.63447 96.7148 8.2358C96.2508 8.83239 95.6519 9.21354 94.918 9.37926V9.47869C95.4862 9.57339 95.9975 9.79356 96.4521 10.1392C96.9113 10.4801 97.2759 10.9062 97.5458 11.4176C97.8204 11.929 97.9577 12.4901 97.9577 13.1009C97.9577 13.8868 97.7257 14.59 97.2617 15.2102C96.7977 15.8258 96.1585 16.3111 95.3441 16.6662C94.5344 17.0213 93.604 17.1989 92.5529 17.1989ZM92.5529 15.1676C93.0974 15.1676 93.5709 15.0753 93.9734 14.8906C94.3758 14.7012 94.6883 14.4361 94.9109 14.0952C95.1334 13.7543 95.247 13.3613 95.2518 12.9162C95.247 12.4522 95.1263 12.0426 94.8896 11.6875C94.6576 11.3277 94.338 11.0459 93.9308 10.8423C93.5283 10.6387 93.069 10.5369 92.5529 10.5369C92.0321 10.5369 91.5681 10.6387 91.1609 10.8423C90.7537 11.0459 90.4317 11.3277 90.195 11.6875C89.9629 12.0426 89.8493 12.4522 89.854 12.9162C89.8493 13.3613 89.9582 13.7543 90.1808 14.0952C90.4033 14.4313 90.7158 14.6941 91.1183 14.8835C91.5255 15.0729 92.0037 15.1676 92.5529 15.1676ZM92.5529 8.54119C92.998 8.54119 93.391 8.45123 93.7319 8.27131C94.0775 8.09138 94.3498 7.84044 94.5487 7.51847C94.7475 7.1965 94.8493 6.82481 94.854 6.40341C94.8493 5.98674 94.7499 5.62216 94.5558 5.30966C94.3616 4.99242 94.0917 4.74858 93.7461 4.57812C93.4004 4.40294 93.0027 4.31534 92.5529 4.31534C92.0936 4.31534 91.6888 4.40294 91.3384 4.57812C90.9928 4.74858 90.7229 4.99242 90.5288 5.30966C90.3394 5.62216 90.247 5.98674 90.2518 6.40341C90.247 6.82481 90.3417 7.1965 90.5359 7.51847C90.7347 7.8357 91.007 8.08665 91.3526 8.27131C91.703 8.45123 92.1031 8.54119 92.5529 8.54119ZM100.293 17V15.0966L105.342 10.1463C105.825 9.65862 106.228 9.22538 106.55 8.84659C106.872 8.4678 107.113 8.10085 107.274 7.74574C107.435 7.39062 107.516 7.01184 107.516 6.60938C107.516 6.15009 107.411 5.7571 107.203 5.4304C106.995 5.09896 106.708 4.84328 106.344 4.66335C105.979 4.48343 105.565 4.39347 105.101 4.39347C104.623 4.39347 104.204 4.4929 103.844 4.69176C103.484 4.88589 103.205 5.16288 103.006 5.52273C102.812 5.88258 102.714 6.31108 102.714 6.80824H100.207C100.207 5.88494 100.418 5.08239 100.839 4.40057C101.261 3.71875 101.841 3.19081 102.58 2.81676C103.323 2.44271 104.175 2.25568 105.136 2.25568C106.112 2.25568 106.969 2.43797 107.707 2.80256C108.446 3.16714 109.019 3.66667 109.426 4.30114C109.838 4.93561 110.044 5.66004 110.044 6.47443C110.044 7.01894 109.94 7.55398 109.732 8.07955C109.523 8.60511 109.156 9.1875 108.631 9.8267C108.11 10.4659 107.378 11.2401 106.436 12.1491L103.929 14.6989V14.7983H110.264V17H100.293ZM112.714 17V15.0966L117.764 10.1463C118.247 9.65862 118.65 9.22538 118.972 8.84659C119.294 8.4678 119.535 8.10085 119.696 7.74574C119.857 7.39062 119.938 7.01184 119.938 6.60938C119.938 6.15009 119.833 5.7571 119.625 5.4304C119.417 5.09896 119.13 4.84328 118.766 4.66335C118.401 4.48343 117.987 4.39347 117.523 4.39347C117.045 4.39347 116.625 4.4929 116.266 4.69176C115.906 4.88589 115.626 5.16288 115.428 5.52273C115.233 5.88258 115.136 6.31108 115.136 6.80824H112.629C112.629 5.88494 112.84 5.08239 113.261 4.40057C113.683 3.71875 114.263 3.19081 115.001 2.81676C115.745 2.44271 116.597 2.25568 117.558 2.25568C118.534 2.25568 119.391 2.43797 120.129 2.80256C120.868 3.16714 121.441 3.66667 121.848 4.30114C122.26 4.93561 122.466 5.66004 122.466 6.47443C122.466 7.01894 122.362 7.55398 122.153 8.07955C121.945 8.60511 121.578 9.1875 121.053 9.8267C120.532 10.4659 119.8 11.2401 118.858 12.1491L116.351 14.6989V14.7983H122.686V17H112.714ZM135.424 17.1989C134.728 17.1941 134.049 17.0734 133.386 16.8366C132.723 16.5952 132.126 16.2045 131.596 15.6648C131.066 15.1203 130.644 14.3982 130.332 13.4986C130.019 12.5942 129.865 11.4744 129.87 10.1392C129.87 8.89394 130.003 7.78362 130.268 6.80824C130.533 5.83286 130.914 5.009 131.411 4.33665C131.908 3.65956 132.507 3.14347 133.208 2.78835C133.914 2.43324 134.702 2.25568 135.573 2.25568C136.487 2.25568 137.297 2.43561 138.002 2.79545C138.712 3.1553 139.285 3.64773 139.721 4.27273C140.156 4.89299 140.426 5.59375 140.531 6.375H137.938C137.806 5.81629 137.533 5.37121 137.121 5.03977C136.714 4.7036 136.198 4.53551 135.573 4.53551C134.565 4.53551 133.788 4.97348 133.244 5.84943C132.704 6.72538 132.432 7.92803 132.427 9.45739H132.526C132.758 9.04072 133.059 8.68324 133.428 8.38494C133.798 8.08665 134.214 7.85701 134.678 7.69602C135.147 7.5303 135.642 7.44744 136.163 7.44744C137.015 7.44744 137.78 7.65104 138.457 8.05824C139.138 8.46544 139.678 9.02651 140.076 9.74148C140.474 10.4517 140.67 11.2661 140.665 12.1847C140.67 13.1411 140.452 14.0005 140.012 14.7628C139.572 15.5204 138.959 16.117 138.173 16.5526C137.387 16.9882 136.47 17.2036 135.424 17.1989ZM135.41 15.0682C135.926 15.0682 136.388 14.9427 136.795 14.6918C137.202 14.4408 137.524 14.1023 137.761 13.6761C137.997 13.25 138.113 12.7718 138.109 12.2415C138.113 11.7206 138 11.2495 137.768 10.8281C137.54 10.4067 137.226 10.0729 136.823 9.8267C136.421 9.58049 135.961 9.45739 135.445 9.45739C135.062 9.45739 134.704 9.53078 134.373 9.67756C134.041 9.82434 133.753 10.0279 133.506 10.2884C133.26 10.544 133.066 10.8423 132.924 11.1832C132.787 11.5194 132.716 11.8793 132.711 12.2628C132.716 12.7694 132.834 13.2358 133.066 13.6619C133.298 14.0881 133.618 14.429 134.025 14.6847C134.432 14.9403 134.894 15.0682 135.41 15.0682ZM143.066 17V15.0966L148.116 10.1463C148.599 9.65862 149.001 9.22538 149.323 8.84659C149.645 8.4678 149.887 8.10085 150.048 7.74574C150.209 7.39062 150.289 7.01184 150.289 6.60938C150.289 6.15009 150.185 5.7571 149.977 5.4304C149.768 5.09896 149.482 4.84328 149.117 4.66335C148.753 4.48343 148.338 4.39347 147.874 4.39347C147.396 4.39347 146.977 4.4929 146.617 4.69176C146.257 4.88589 145.978 5.16288 145.779 5.52273C145.585 5.88258 145.488 6.31108 145.488 6.80824H142.981C142.981 5.88494 143.192 5.08239 143.613 4.40057C144.034 3.71875 144.614 3.19081 145.353 2.81676C146.096 2.44271 146.949 2.25568 147.91 2.25568C148.885 2.25568 149.742 2.43797 150.481 2.80256C151.219 3.16714 151.792 3.66667 152.2 4.30114C152.612 4.93561 152.817 5.66004 152.817 6.47443C152.817 7.01894 152.713 7.55398 152.505 8.07955C152.297 8.60511 151.93 9.1875 151.404 9.8267C150.883 10.4659 150.152 11.2401 149.21 12.1491L146.702 14.6989V14.7983H153.038V17H143.066ZM160.815 17.1989C160.119 17.1941 159.439 17.0734 158.776 16.8366C158.113 16.5952 157.517 16.2045 156.987 15.6648C156.456 15.1203 156.035 14.3982 155.722 13.4986C155.41 12.5942 155.256 11.4744 155.261 10.1392C155.261 8.89394 155.393 7.78362 155.658 6.80824C155.924 5.83286 156.305 5.009 156.802 4.33665C157.299 3.65956 157.898 3.14347 158.599 2.78835C159.304 2.43324 160.093 2.25568 160.964 2.25568C161.878 2.25568 162.687 2.43561 163.393 2.79545C164.103 3.1553 164.676 3.64773 165.112 4.27273C165.547 4.89299 165.817 5.59375 165.921 6.375H163.329C163.196 5.81629 162.924 5.37121 162.512 5.03977C162.105 4.7036 161.589 4.53551 160.964 4.53551C159.955 4.53551 159.179 4.97348 158.634 5.84943C158.094 6.72538 157.822 7.92803 157.817 9.45739H157.917C158.149 9.04072 158.45 8.68324 158.819 8.38494C159.188 8.08665 159.605 7.85701 160.069 7.69602C160.538 7.5303 161.032 7.44744 161.553 7.44744C162.406 7.44744 163.17 7.65104 163.847 8.05824C164.529 8.46544 165.069 9.02651 165.467 9.74148C165.864 10.4517 166.061 11.2661 166.056 12.1847C166.061 13.1411 165.843 14.0005 165.403 14.7628C164.962 15.5204 164.349 16.117 163.563 16.5526C162.777 16.9882 161.861 17.2036 160.815 17.1989ZM160.8 15.0682C161.317 15.0682 161.778 14.9427 162.185 14.6918C162.593 14.4408 162.915 14.1023 163.151 13.6761C163.388 13.25 163.504 12.7718 163.499 12.2415C163.504 11.7206 163.39 11.2495 163.158 10.8281C162.931 10.4067 162.616 10.0729 162.214 9.8267C161.811 9.58049 161.352 9.45739 160.836 9.45739C160.452 9.45739 160.095 9.53078 159.763 9.67756C159.432 9.82434 159.143 10.0279 158.897 10.2884C158.651 10.544 158.457 10.8423 158.315 11.1832C158.177 11.5194 158.106 11.8793 158.102 12.2628C158.106 12.7694 158.225 13.2358 158.457 13.6619C158.689 14.0881 159.008 14.429 159.415 14.6847C159.823 14.9403 160.284 15.0682 160.8 15.0682ZM168.457 17V15.0966L173.506 10.1463C173.989 9.65862 174.392 9.22538 174.714 8.84659C175.036 8.4678 175.277 8.10085 175.438 7.74574C175.599 7.39062 175.68 7.01184 175.68 6.60938C175.68 6.15009 175.576 5.7571 175.367 5.4304C175.159 5.09896 174.872 4.84328 174.508 4.66335C174.143 4.48343 173.729 4.39347 173.265 4.39347C172.787 4.39347 172.368 4.4929 172.008 4.69176C171.648 4.88589 171.369 5.16288 171.17 5.52273C170.976 5.88258 170.879 6.31108 170.879 6.80824H168.371C168.371 5.88494 168.582 5.08239 169.004 4.40057C169.425 3.71875 170.005 3.19081 170.744 2.81676C171.487 2.44271 172.339 2.25568 173.3 2.25568C174.276 2.25568 175.133 2.43797 175.871 2.80256C176.61 3.16714 177.183 3.66667 177.59 4.30114C178.002 4.93561 178.208 5.66004 178.208 6.47443C178.208 7.01894 178.104 7.55398 177.896 8.07955C177.687 8.60511 177.32 9.1875 176.795 9.8267C176.274 10.4659 175.542 11.2401 174.6 12.1491L172.093 14.6989V14.7983H178.428V17H168.457Z" fill="#151515"/>
</svg>
