<svg width="457" height="88" viewBox="0 0 457 88" fill="none" xmlns="http://www.w3.org/2000/svg">
<path d="M46.5 0H456.5L410.576 87H0L46.5 0Z" fill="url(#paint0_linear_1_642)"/>
<path d="M163.16 49.3018V35.3018H170C171.76 35.3018 173.08 35.6351 173.96 36.3018C174.853 36.9684 175.3 37.8484 175.3 38.9418C175.3 39.6751 175.12 40.3151 174.76 40.8618C174.4 41.3951 173.907 41.8084 173.28 42.1018C172.653 42.3951 171.933 42.5418 171.12 42.5418L171.5 41.7218C172.38 41.7218 173.16 41.8684 173.84 42.1618C174.52 42.4418 175.047 42.8618 175.42 43.4218C175.807 43.9818 176 44.6684 176 45.4818C176 46.6818 175.527 47.6218 174.58 48.3018C173.633 48.9684 172.24 49.3018 170.4 49.3018H163.16ZM166.38 46.8618H170.16C171 46.8618 171.633 46.7284 172.06 46.4618C172.5 46.1818 172.72 45.7418 172.72 45.1418C172.72 44.5551 172.5 44.1218 172.06 43.8418C171.633 43.5484 171 43.4018 170.16 43.4018H166.14V41.0418H169.6C170.387 41.0418 170.987 40.9084 171.4 40.6418C171.827 40.3618 172.04 39.9418 172.04 39.3818C172.04 38.8351 171.827 38.4284 171.4 38.1618C170.987 37.8818 170.387 37.7418 169.6 37.7418H166.38V46.8618ZM186.253 49.5418C185.146 49.5418 184.12 49.3618 183.173 49.0018C182.24 48.6418 181.426 48.1351 180.733 47.4818C180.053 46.8284 179.52 46.0618 179.133 45.1818C178.76 44.3018 178.573 43.3418 178.573 42.3018C178.573 41.2618 178.76 40.3018 179.133 39.4218C179.52 38.5418 180.06 37.7751 180.753 37.1218C181.446 36.4684 182.26 35.9618 183.193 35.6018C184.126 35.2418 185.14 35.0618 186.233 35.0618C187.34 35.0618 188.353 35.2418 189.273 35.6018C190.206 35.9618 191.013 36.4684 191.693 37.1218C192.386 37.7751 192.926 38.5418 193.313 39.4218C193.7 40.2884 193.893 41.2484 193.893 42.3018C193.893 43.3418 193.7 44.3084 193.313 45.2018C192.926 46.0818 192.386 46.8484 191.693 47.5018C191.013 48.1418 190.206 48.6418 189.273 49.0018C188.353 49.3618 187.346 49.5418 186.253 49.5418ZM186.233 46.7818C186.86 46.7818 187.433 46.6751 187.953 46.4618C188.486 46.2484 188.953 45.9418 189.353 45.5418C189.753 45.1418 190.06 44.6684 190.273 44.1218C190.5 43.5751 190.613 42.9684 190.613 42.3018C190.613 41.6351 190.5 41.0284 190.273 40.4818C190.06 39.9351 189.753 39.4618 189.353 39.0618C188.966 38.6618 188.506 38.3551 187.973 38.1418C187.44 37.9284 186.86 37.8218 186.233 37.8218C185.606 37.8218 185.026 37.9284 184.493 38.1418C183.973 38.3551 183.513 38.6618 183.113 39.0618C182.713 39.4618 182.4 39.9351 182.173 40.4818C181.96 41.0284 181.853 41.6351 181.853 42.3018C181.853 42.9551 181.96 43.5618 182.173 44.1218C182.4 44.6684 182.706 45.1418 183.093 45.5418C183.493 45.9418 183.96 46.2484 184.493 46.4618C185.026 46.6751 185.606 46.7818 186.233 46.7818ZM204.128 49.5418C203.021 49.5418 201.995 49.3618 201.048 49.0018C200.115 48.6418 199.301 48.1351 198.608 47.4818C197.928 46.8284 197.395 46.0618 197.008 45.1818C196.635 44.3018 196.448 43.3418 196.448 42.3018C196.448 41.2618 196.635 40.3018 197.008 39.4218C197.395 38.5418 197.935 37.7751 198.628 37.1218C199.321 36.4684 200.135 35.9618 201.068 35.6018C202.001 35.2418 203.015 35.0618 204.108 35.0618C205.215 35.0618 206.228 35.2418 207.148 35.6018C208.081 35.9618 208.888 36.4684 209.568 37.1218C210.261 37.7751 210.801 38.5418 211.188 39.4218C211.575 40.2884 211.768 41.2484 211.768 42.3018C211.768 43.3418 211.575 44.3084 211.188 45.2018C210.801 46.0818 210.261 46.8484 209.568 47.5018C208.888 48.1418 208.081 48.6418 207.148 49.0018C206.228 49.3618 205.221 49.5418 204.128 49.5418ZM204.108 46.7818C204.735 46.7818 205.308 46.6751 205.828 46.4618C206.361 46.2484 206.828 45.9418 207.228 45.5418C207.628 45.1418 207.935 44.6684 208.148 44.1218C208.375 43.5751 208.488 42.9684 208.488 42.3018C208.488 41.6351 208.375 41.0284 208.148 40.4818C207.935 39.9351 207.628 39.4618 207.228 39.0618C206.841 38.6618 206.381 38.3551 205.848 38.1418C205.315 37.9284 204.735 37.8218 204.108 37.8218C203.481 37.8218 202.901 37.9284 202.368 38.1418C201.848 38.3551 201.388 38.6618 200.988 39.0618C200.588 39.4618 200.275 39.9351 200.048 40.4818C199.835 41.0284 199.728 41.6351 199.728 42.3018C199.728 42.9551 199.835 43.5618 200.048 44.1218C200.275 44.6684 200.581 45.1418 200.968 45.5418C201.368 45.9418 201.835 46.2484 202.368 46.4618C202.901 46.6751 203.481 46.7818 204.108 46.7818ZM218.103 46.1018L217.923 42.3618L224.623 35.3018H228.223L222.183 41.8018L220.383 43.7218L218.103 46.1018ZM215.203 49.3018V35.3018H218.423V49.3018H215.203ZM224.783 49.3018L219.803 43.2018L221.923 40.9018L228.563 49.3018H224.783ZM237.672 49.3018V35.3018H240.352L248.612 45.3818H247.312V35.3018H250.512V49.3018H247.852L239.572 39.2218H240.872V49.3018H237.672ZM261.624 49.5418C260.517 49.5418 259.491 49.3618 258.544 49.0018C257.611 48.6418 256.797 48.1351 256.104 47.4818C255.424 46.8284 254.891 46.0618 254.504 45.1818C254.131 44.3018 253.944 43.3418 253.944 42.3018C253.944 41.2618 254.131 40.3018 254.504 39.4218C254.891 38.5418 255.431 37.7751 256.124 37.1218C256.817 36.4684 257.631 35.9618 258.564 35.6018C259.497 35.2418 260.511 35.0618 261.604 35.0618C262.711 35.0618 263.724 35.2418 264.644 35.6018C265.577 35.9618 266.384 36.4684 267.064 37.1218C267.757 37.7751 268.297 38.5418 268.684 39.4218C269.071 40.2884 269.264 41.2484 269.264 42.3018C269.264 43.3418 269.071 44.3084 268.684 45.2018C268.297 46.0818 267.757 46.8484 267.064 47.5018C266.384 48.1418 265.577 48.6418 264.644 49.0018C263.724 49.3618 262.717 49.5418 261.624 49.5418ZM261.604 46.7818C262.231 46.7818 262.804 46.6751 263.324 46.4618C263.857 46.2484 264.324 45.9418 264.724 45.5418C265.124 45.1418 265.431 44.6684 265.644 44.1218C265.871 43.5751 265.984 42.9684 265.984 42.3018C265.984 41.6351 265.871 41.0284 265.644 40.4818C265.431 39.9351 265.124 39.4618 264.724 39.0618C264.337 38.6618 263.877 38.3551 263.344 38.1418C262.811 37.9284 262.231 37.8218 261.604 37.8218C260.977 37.8218 260.397 37.9284 259.864 38.1418C259.344 38.3551 258.884 38.6618 258.484 39.0618C258.084 39.4618 257.771 39.9351 257.544 40.4818C257.331 41.0284 257.224 41.6351 257.224 42.3018C257.224 42.9551 257.331 43.5618 257.544 44.1218C257.771 44.6684 258.077 45.1418 258.464 45.5418C258.864 45.9418 259.331 46.2484 259.864 46.4618C260.397 46.6751 260.977 46.7818 261.604 46.7818ZM275.59 49.3018L271.01 35.3018H274.37L278.35 47.7018H276.67L280.83 35.3018H283.83L287.83 47.7018H286.21L290.29 35.3018H293.39L288.81 49.3018H285.33L281.79 38.4218H282.71L279.07 49.3018H275.59Z" fill="white"/>
<defs>
<linearGradient id="paint0_linear_1_642" x1="57.8587" y1="77.1607" x2="388.184" y2="-3.68847" gradientUnits="userSpaceOnUse">
<stop stop-color="#DC0A00"/>
<stop offset="0.505" stop-color="#DF0800"/>
<stop offset="1" stop-color="#E30700"/>
</linearGradient>
</defs>
</svg>
