<svg width="371" height="28" viewBox="0 0 371 28" fill="none" xmlns="http://www.w3.org/2000/svg">
<path fill-rule="evenodd" clip-rule="evenodd" d="M12.4175 2.28096C11.0641 0.846566 9.23594 0.0282248 7.32188 0H7.24939C5.33518 0.0278148 3.50674 0.845885 2.15305 2.28018C0.799371 3.71447 0.0272781 5.65179 0.00102657 7.68C-0.0225306 9.12 0.35982 10.535 1.09915 11.7446L6.80362 24H7.76946L13.4721 11.7446C14.2133 10.535 14.5956 9.12 14.5702 7.68C14.5436 5.65195 13.7713 3.71494 12.4175 2.28096ZM7.14973 1.92L7.29832 1.9392L7.43241 1.92C8.85593 1.98569 10.2016 2.62669 11.1928 3.71122C12.1841 4.79576 12.7455 6.24142 12.7618 7.75104C12.7756 8.82246 12.4804 9.87281 11.9155 10.7616L11.8793 10.8269L11.8485 10.8941L7.28563 20.6957L2.7246 10.9037L2.69379 10.8288L2.65755 10.7635C2.09269 9.87473 1.79744 8.82438 1.81131 7.75296C1.82676 6.24159 2.38887 4.7941 3.38176 3.70886C4.37465 2.62362 5.72266 1.98334 7.14791 1.92H7.14973ZM8.25873 6.08448C8.06086 5.94429 7.83886 5.84677 7.60542 5.79748C7.37198 5.7482 7.13167 5.74811 6.89819 5.79723C6.66472 5.84635 6.44267 5.94371 6.24471 6.08375C6.04675 6.2238 5.87676 6.40379 5.74445 6.61344C5.61214 6.82309 5.5201 7.0583 5.47358 7.30565C5.42707 7.55299 5.42698 7.80762 5.47334 8.05499C5.5197 8.30237 5.61159 8.53765 5.74376 8.74739C5.87594 8.95714 6.04581 9.13725 6.24368 9.27744C6.6433 9.56056 7.1327 9.66389 7.60421 9.56469C8.07573 9.46549 8.49075 9.17189 8.75796 8.74848C9.02517 8.32507 9.12269 7.80653 9.02907 7.30693C8.93544 6.80733 8.65834 6.3676 8.25873 6.08448ZM5.23797 4.48704C5.63336 4.19255 6.08034 3.98484 6.55261 3.8761C7.02489 3.76737 7.51292 3.75982 7.988 3.8539C8.46307 3.94798 8.91558 4.14178 9.31891 4.42391C9.72224 4.70604 10.0682 5.0708 10.3365 5.49672C10.6049 5.92263 10.7901 6.40111 10.8812 6.90399C10.9724 7.40687 10.9678 7.92399 10.8675 8.42494C10.7673 8.92588 10.5735 9.40052 10.2976 9.82094C10.0217 10.2413 9.66915 10.599 9.26081 10.873C8.4615 11.4092 7.49599 11.5929 6.57052 11.385C5.64505 11.1772 4.83298 10.5941 4.30777 9.76036C3.78257 8.92664 3.58586 7.90837 3.75967 6.92305C3.93347 5.93774 4.46402 5.06349 5.23797 4.48704Z" fill="#C10900"/>
<path d="M34.0682 20.1591C33.5909 20.1515 33.1136 20.0606 32.6364 19.8864C32.1591 19.7121 31.7235 19.4186 31.3295 19.0057C30.9356 18.589 30.6193 18.0265 30.3807 17.3182C30.142 16.6061 30.0227 15.7121 30.0227 14.6364C30.0227 13.6061 30.1193 12.6932 30.3125 11.8977C30.5057 11.0985 30.786 10.4261 31.1534 9.88068C31.5208 9.33144 31.964 8.91477 32.483 8.63068C33.0057 8.34659 33.5947 8.20455 34.25 8.20455C34.9015 8.20455 35.4811 8.33523 35.9886 8.59659C36.5 8.85417 36.9167 9.21401 37.2386 9.67614C37.5606 10.1383 37.7689 10.6705 37.8636 11.2727H36.4773C36.3485 10.75 36.0985 10.3163 35.7273 9.97159C35.3561 9.62689 34.8636 9.45455 34.25 9.45455C33.3485 9.45455 32.6383 9.84659 32.1193 10.6307C31.6042 11.4148 31.3447 12.5152 31.3409 13.9318H31.4318C31.6439 13.6098 31.8958 13.3352 32.1875 13.108C32.483 12.8769 32.8087 12.6989 33.1648 12.5739C33.5208 12.4489 33.8977 12.3864 34.2955 12.3864C34.9621 12.3864 35.572 12.553 36.125 12.8864C36.678 13.2159 37.1212 13.6723 37.4545 14.2557C37.7879 14.8352 37.9545 15.5 37.9545 16.25C37.9545 16.9697 37.7936 17.6288 37.4716 18.2273C37.1496 18.822 36.697 19.2955 36.1136 19.6477C35.5341 19.9962 34.8523 20.1667 34.0682 20.1591ZM34.0682 18.9091C34.5455 18.9091 34.9735 18.7898 35.3523 18.5511C35.7348 18.3125 36.036 17.9924 36.2557 17.5909C36.4792 17.1894 36.5909 16.7424 36.5909 16.25C36.5909 15.7689 36.483 15.3314 36.267 14.9375C36.0549 14.5398 35.7614 14.2235 35.3864 13.9886C35.0152 13.7538 34.5909 13.6364 34.1136 13.6364C33.7538 13.6364 33.4186 13.7083 33.108 13.8523C32.7973 13.9924 32.5246 14.1856 32.2898 14.4318C32.0587 14.678 31.8769 14.9602 31.7443 15.2784C31.6117 15.5928 31.5455 15.9242 31.5455 16.2727C31.5455 16.7348 31.6534 17.1667 31.8693 17.5682C32.089 17.9697 32.3883 18.2936 32.767 18.5398C33.1496 18.786 33.5833 18.9091 34.0682 18.9091ZM44.2798 8.36364V20H42.8707V9.84091H42.8026L39.9616 11.7273V10.2955L42.8707 8.36364H44.2798ZM47.6264 20V18.9773L51.4673 14.7727C51.9181 14.2803 52.2893 13.8523 52.581 13.4886C52.8726 13.1212 53.0885 12.7765 53.2287 12.4545C53.3726 12.1288 53.4446 11.7879 53.4446 11.4318C53.4446 11.0227 53.3461 10.6686 53.1491 10.3693C52.956 10.0701 52.6908 9.83901 52.3537 9.67614C52.0166 9.51326 51.6378 9.43182 51.2173 9.43182C50.7704 9.43182 50.3802 9.52462 50.0469 9.71023C49.7173 9.89205 49.4616 10.1477 49.2798 10.4773C49.1018 10.8068 49.0128 11.1932 49.0128 11.6364H47.6719C47.6719 10.9545 47.8291 10.3561 48.1435 9.84091C48.4579 9.32576 48.8859 8.92424 49.4276 8.63636C49.973 8.34848 50.5848 8.20455 51.2628 8.20455C51.9446 8.20455 52.5488 8.34848 53.0753 8.63636C53.6018 8.92424 54.0147 9.3125 54.3139 9.80114C54.6132 10.2898 54.7628 10.8333 54.7628 11.4318C54.7628 11.8598 54.6851 12.2784 54.5298 12.6875C54.3783 13.0928 54.1132 13.5455 53.7344 14.0455C53.3594 14.5417 52.8385 15.1477 52.1719 15.8636L49.5582 18.6591V18.75H54.9673V20H47.6264ZM68.3821 11.2727C68.3139 10.697 68.0374 10.25 67.5526 9.93182C67.0677 9.61364 66.473 9.45455 65.7685 9.45455C65.2533 9.45455 64.8026 9.53788 64.4162 9.70455C64.0336 9.87121 63.7344 10.1004 63.5185 10.392C63.3063 10.6837 63.2003 11.0152 63.2003 11.3864C63.2003 11.697 63.2741 11.964 63.4219 12.1875C63.5734 12.4072 63.7666 12.5909 64.0014 12.7386C64.2363 12.8826 64.4825 13.0019 64.7401 13.0966C64.9976 13.1875 65.2344 13.2614 65.4503 13.3182L66.6321 13.6364C66.9351 13.7159 67.2723 13.8258 67.6435 13.9659C68.0185 14.1061 68.3764 14.2973 68.7173 14.5398C69.062 14.7784 69.3461 15.0852 69.5696 15.4602C69.7931 15.8352 69.9048 16.2955 69.9048 16.8409C69.9048 17.4697 69.7401 18.0379 69.4105 18.5455C69.0848 19.053 68.6075 19.4564 67.9787 19.7557C67.3537 20.0549 66.5942 20.2045 65.7003 20.2045C64.867 20.2045 64.1454 20.0701 63.5355 19.8011C62.9295 19.5322 62.4522 19.1572 62.1037 18.6761C61.759 18.1951 61.5639 17.6364 61.5185 17H62.973C63.0109 17.4394 63.1586 17.803 63.4162 18.0909C63.6776 18.375 64.0071 18.5871 64.4048 18.7273C64.8063 18.8636 65.2382 18.9318 65.7003 18.9318C66.2382 18.9318 66.7211 18.8447 67.1491 18.6705C67.5772 18.4924 67.9162 18.2462 68.1662 17.9318C68.4162 17.6136 68.5412 17.2424 68.5412 16.8182C68.5412 16.4318 68.4332 16.1174 68.2173 15.875C68.0014 15.6326 67.7173 15.4356 67.3651 15.2841C67.0128 15.1326 66.6321 15 66.223 14.8864L64.7912 14.4773C63.8821 14.2159 63.1624 13.8428 62.6321 13.358C62.1018 12.8731 61.8366 12.2386 61.8366 11.4545C61.8366 10.803 62.0128 10.2348 62.3651 9.75C62.7211 9.26136 63.1984 8.88258 63.7969 8.61364C64.3991 8.34091 65.0715 8.20455 65.8139 8.20455C66.5639 8.20455 67.2306 8.33901 67.8139 8.60795C68.3973 8.87311 68.8594 9.23674 69.2003 9.69886C69.545 10.161 69.7268 10.6856 69.7457 11.2727H68.3821ZM75.5852 20.1818C74.7973 20.1818 74.1061 19.9943 73.5114 19.6193C72.9205 19.2443 72.4583 18.7197 72.125 18.0455C71.7955 17.3712 71.6307 16.5833 71.6307 15.6818C71.6307 14.7727 71.7955 13.9792 72.125 13.3011C72.4583 12.6231 72.9205 12.0966 73.5114 11.7216C74.1061 11.3466 74.7973 11.1591 75.5852 11.1591C76.3731 11.1591 77.0625 11.3466 77.6534 11.7216C78.2481 12.0966 78.7102 12.6231 79.0398 13.3011C79.3731 13.9792 79.5398 14.7727 79.5398 15.6818C79.5398 16.5833 79.3731 17.3712 79.0398 18.0455C78.7102 18.7197 78.2481 19.2443 77.6534 19.6193C77.0625 19.9943 76.3731 20.1818 75.5852 20.1818ZM75.5852 18.9773C76.1837 18.9773 76.6761 18.8239 77.0625 18.517C77.4489 18.2102 77.7348 17.8068 77.9205 17.3068C78.1061 16.8068 78.1989 16.2652 78.1989 15.6818C78.1989 15.0985 78.1061 14.5549 77.9205 14.0511C77.7348 13.5473 77.4489 13.1402 77.0625 12.8295C76.6761 12.5189 76.1837 12.3636 75.5852 12.3636C74.9867 12.3636 74.4943 12.5189 74.108 12.8295C73.7216 13.1402 73.4356 13.5473 73.25 14.0511C73.0644 14.5549 72.9716 15.0985 72.9716 15.6818C72.9716 16.2652 73.0644 16.8068 73.25 17.3068C73.4356 17.8068 73.7216 18.2102 74.108 18.517C74.4943 18.8239 74.9867 18.9773 75.5852 18.9773ZM87.0866 16.4318V11.2727H88.4276V20H87.0866V18.5227H86.9957C86.7912 18.9659 86.473 19.3428 86.0412 19.6534C85.6094 19.9602 85.0639 20.1136 84.4048 20.1136C83.8594 20.1136 83.3745 19.9943 82.9503 19.7557C82.526 19.5133 82.1927 19.1496 81.9503 18.6648C81.7079 18.1761 81.5866 17.5606 81.5866 16.8182V11.2727H82.9276V16.7273C82.9276 17.3636 83.1056 17.8712 83.4616 18.25C83.8215 18.6288 84.2798 18.8182 84.8366 18.8182C85.17 18.8182 85.509 18.733 85.8537 18.5625C86.2022 18.392 86.4938 18.1307 86.7287 17.7784C86.9673 17.4261 87.0866 16.9773 87.0866 16.4318ZM94.679 11.2727V12.4091H90.1562V11.2727H94.679ZM91.4744 9.18182H92.8153V17.5C92.8153 17.8788 92.8703 18.1629 92.9801 18.3523C93.0938 18.5379 93.2377 18.6629 93.4119 18.7273C93.59 18.7879 93.7775 18.8182 93.9744 18.8182C94.1222 18.8182 94.2434 18.8106 94.3381 18.7955C94.4328 18.7765 94.5085 18.7614 94.5653 18.75L94.8381 19.9545C94.7472 19.9886 94.6203 20.0227 94.4574 20.0568C94.2945 20.0947 94.0881 20.1136 93.8381 20.1136C93.4593 20.1136 93.0881 20.0322 92.7244 19.8693C92.3646 19.7064 92.0653 19.4583 91.8267 19.125C91.5919 18.7917 91.4744 18.3712 91.4744 17.8636V9.18182ZM98.2244 14.75V20H96.8835V8.36364H98.2244V12.6364H98.3381C98.5426 12.1856 98.8494 11.8277 99.2585 11.5625C99.6714 11.2936 100.221 11.1591 100.906 11.1591C101.501 11.1591 102.022 11.2784 102.469 11.517C102.916 11.7519 103.262 12.1136 103.509 12.6023C103.759 13.0871 103.884 13.7045 103.884 14.4545V20H102.543V14.5455C102.543 13.8523 102.363 13.3163 102.003 12.9375C101.647 12.5549 101.152 12.3636 100.52 12.3636C100.08 12.3636 99.6866 12.4564 99.3381 12.642C98.9934 12.8277 98.7206 13.0985 98.5199 13.4545C98.3229 13.8106 98.2244 14.2424 98.2244 14.75ZM111.018 20V8.36364H114.95C115.863 8.36364 116.609 8.52841 117.189 8.85795C117.772 9.18371 118.204 9.625 118.484 10.1818C118.765 10.7386 118.905 11.3598 118.905 12.0455C118.905 12.7311 118.765 13.3542 118.484 13.9148C118.208 14.4754 117.78 14.9223 117.2 15.2557C116.621 15.5852 115.878 15.75 114.973 15.75H112.155V14.5H114.928C115.553 14.5 116.054 14.392 116.433 14.1761C116.812 13.9602 117.087 13.6686 117.257 13.3011C117.431 12.9299 117.518 12.5114 117.518 12.0455C117.518 11.5795 117.431 11.1629 117.257 10.7955C117.087 10.428 116.81 10.1402 116.428 9.93182C116.045 9.7197 115.537 9.61364 114.905 9.61364H112.428V20H111.018ZM123.561 20.2045C123.008 20.2045 122.506 20.1004 122.055 19.892C121.605 19.6799 121.247 19.375 120.982 18.9773C120.716 18.5758 120.584 18.0909 120.584 17.5227C120.584 17.0227 120.682 16.6174 120.879 16.3068C121.076 15.9924 121.339 15.7462 121.669 15.5682C121.999 15.3902 122.362 15.2576 122.76 15.1705C123.161 15.0795 123.565 15.0076 123.97 14.9545C124.5 14.8864 124.93 14.8352 125.26 14.8011C125.593 14.7633 125.836 14.7008 125.987 14.6136C126.143 14.5265 126.22 14.375 126.22 14.1591V14.1136C126.22 13.553 126.067 13.1174 125.76 12.8068C125.457 12.4962 124.997 12.3409 124.379 12.3409C123.739 12.3409 123.237 12.4811 122.874 12.7614C122.51 13.0417 122.254 13.3409 122.107 13.6591L120.834 13.2045C121.061 12.6742 121.364 12.2614 121.743 11.9659C122.125 11.6667 122.542 11.4583 122.993 11.3409C123.447 11.2197 123.894 11.1591 124.334 11.1591C124.614 11.1591 124.936 11.1932 125.3 11.2614C125.667 11.3258 126.021 11.4602 126.362 11.6648C126.707 11.8693 126.993 12.178 127.22 12.5909C127.447 13.0038 127.561 13.5568 127.561 14.25V20H126.22V18.8182H126.152C126.061 19.0076 125.91 19.2102 125.697 19.4261C125.485 19.642 125.203 19.8258 124.851 19.9773C124.499 20.1288 124.069 20.2045 123.561 20.2045ZM123.766 19C124.296 19 124.743 18.8958 125.107 18.6875C125.474 18.4792 125.75 18.2102 125.936 17.8807C126.125 17.5511 126.22 17.2045 126.22 16.8409V15.6136C126.163 15.6818 126.038 15.7443 125.845 15.8011C125.656 15.8542 125.436 15.9015 125.186 15.9432C124.94 15.9811 124.699 16.0152 124.464 16.0455C124.233 16.072 124.046 16.0947 123.902 16.1136C123.554 16.1591 123.228 16.233 122.925 16.3352C122.625 16.4337 122.383 16.5833 122.197 16.7841C122.016 16.9811 121.925 17.25 121.925 17.5909C121.925 18.0568 122.097 18.4091 122.442 18.6477C122.79 18.8826 123.232 19 123.766 19ZM131.349 8.36364V20H130.009V8.36364H131.349ZM133.805 20V11.2727H135.101V12.6364H135.214C135.396 12.1705 135.69 11.8087 136.095 11.5511C136.5 11.2898 136.987 11.1591 137.555 11.1591C138.131 11.1591 138.61 11.2898 138.993 11.5511C139.379 11.8087 139.68 12.1705 139.896 12.6364H139.987C140.211 12.1856 140.546 11.8277 140.993 11.5625C141.44 11.2936 141.976 11.1591 142.601 11.1591C143.381 11.1591 144.019 11.4034 144.516 11.892C145.012 12.3769 145.26 13.1326 145.26 14.1591V20H143.919V14.1591C143.919 13.5152 143.743 13.0549 143.391 12.7784C143.038 12.5019 142.624 12.3636 142.146 12.3636C141.533 12.3636 141.057 12.5492 140.72 12.9205C140.383 13.2879 140.214 13.7538 140.214 14.3182V20H138.851V14.0227C138.851 13.5265 138.69 13.1269 138.368 12.8239C138.046 12.517 137.631 12.3636 137.124 12.3636C136.775 12.3636 136.449 12.4564 136.146 12.642C135.847 12.8277 135.605 13.0852 135.419 13.4148C135.237 13.7405 135.146 14.1174 135.146 14.5455V20H133.805ZM152.871 20H151.393L155.666 8.36364H157.121L161.393 20H159.916L156.439 10.2045H156.348L152.871 20ZM153.416 15.4545H159.371V16.7045H153.416V15.4545ZM169.067 11.2727L165.839 20H164.476L161.249 11.2727H162.703L165.112 18.2273H165.203L167.612 11.2727H169.067ZM174.183 20.1818C173.342 20.1818 172.617 19.9962 172.007 19.625C171.401 19.25 170.933 18.7273 170.604 18.0568C170.278 17.3826 170.115 16.5985 170.115 15.7045C170.115 14.8106 170.278 14.0227 170.604 13.3409C170.933 12.6553 171.392 12.1212 171.979 11.7386C172.57 11.3523 173.259 11.1591 174.047 11.1591C174.501 11.1591 174.95 11.2348 175.393 11.3864C175.837 11.5379 176.24 11.7841 176.604 12.125C176.967 12.4621 177.257 12.9091 177.473 13.4659C177.689 14.0227 177.797 14.7083 177.797 15.5227V16.0909H171.07V14.9318H176.433C176.433 14.4394 176.335 14 176.138 13.6136C175.945 13.2273 175.668 12.9223 175.308 12.6989C174.952 12.4754 174.532 12.3636 174.047 12.3636C173.513 12.3636 173.051 12.4962 172.661 12.7614C172.274 13.0227 171.977 13.3636 171.768 13.7841C171.56 14.2045 171.456 14.6553 171.456 15.1364V15.9091C171.456 16.5682 171.57 17.1269 171.797 17.5852C172.028 18.0398 172.348 18.3864 172.757 18.625C173.166 18.8598 173.642 18.9773 174.183 18.9773C174.536 18.9773 174.854 18.928 175.138 18.8295C175.426 18.7273 175.674 18.5758 175.882 18.375C176.09 18.1705 176.251 17.9167 176.365 17.6136L177.661 17.9773C177.524 18.4167 177.295 18.803 176.973 19.1364C176.651 19.4659 176.253 19.7235 175.78 19.9091C175.306 20.0909 174.774 20.1818 174.183 20.1818ZM181.178 14.75V20H179.837V11.2727H181.132V12.6364H181.246C181.45 12.1932 181.761 11.8371 182.178 11.5682C182.594 11.2955 183.132 11.1591 183.791 11.1591C184.382 11.1591 184.899 11.2803 185.342 11.5227C185.786 11.7614 186.13 12.125 186.376 12.6136C186.623 13.0985 186.746 13.7121 186.746 14.4545V20H185.405V14.5455C185.405 13.8598 185.227 13.3258 184.871 12.9432C184.515 12.5568 184.026 12.3636 183.405 12.3636C182.977 12.3636 182.594 12.4564 182.257 12.642C181.924 12.8277 181.661 13.0985 181.467 13.4545C181.274 13.8106 181.178 14.2424 181.178 14.75ZM194.696 16.4318V11.2727H196.037V20H194.696V18.5227H194.605C194.401 18.9659 194.082 19.3428 193.651 19.6534C193.219 19.9602 192.673 20.1136 192.014 20.1136C191.469 20.1136 190.984 19.9943 190.56 19.7557C190.135 19.5133 189.802 19.1496 189.56 18.6648C189.317 18.1761 189.196 17.5606 189.196 16.8182V11.2727H190.537V16.7273C190.537 17.3636 190.715 17.8712 191.071 18.25C191.431 18.6288 191.889 18.8182 192.446 18.8182C192.779 18.8182 193.118 18.733 193.463 18.5625C193.812 18.392 194.103 18.1307 194.338 17.7784C194.577 17.4261 194.696 16.9773 194.696 16.4318ZM202.152 20.1818C201.311 20.1818 200.586 19.9962 199.976 19.625C199.37 19.25 198.902 18.7273 198.572 18.0568C198.247 17.3826 198.084 16.5985 198.084 15.7045C198.084 14.8106 198.247 14.0227 198.572 13.3409C198.902 12.6553 199.36 12.1212 199.947 11.7386C200.538 11.3523 201.228 11.1591 202.016 11.1591C202.47 11.1591 202.919 11.2348 203.362 11.3864C203.805 11.5379 204.209 11.7841 204.572 12.125C204.936 12.4621 205.226 12.9091 205.442 13.4659C205.658 14.0227 205.766 14.7083 205.766 15.5227V16.0909H199.038V14.9318H204.402C204.402 14.4394 204.304 14 204.107 13.6136C203.913 13.2273 203.637 12.9223 203.277 12.6989C202.921 12.4754 202.5 12.3636 202.016 12.3636C201.482 12.3636 201.019 12.4962 200.629 12.7614C200.243 13.0227 199.946 13.3636 199.737 13.7841C199.529 14.2045 199.425 14.6553 199.425 15.1364V15.9091C199.425 16.5682 199.538 17.1269 199.766 17.5852C199.997 18.0398 200.317 18.3864 200.726 18.625C201.135 18.8598 201.61 18.9773 202.152 18.9773C202.504 18.9773 202.822 18.928 203.107 18.8295C203.394 18.7273 203.643 18.5758 203.851 18.375C204.059 18.1705 204.22 17.9167 204.334 17.6136L205.629 17.9773C205.493 18.4167 205.264 18.803 204.942 19.1364C204.62 19.4659 204.222 19.7235 203.749 19.9091C203.275 20.0909 202.743 20.1818 202.152 20.1818ZM209.805 18.4091L209.714 19.0227C209.65 19.4545 209.552 19.9167 209.419 20.4091C209.29 20.9015 209.156 21.3655 209.016 21.8011C208.875 22.2367 208.76 22.5833 208.669 22.8409H207.646C207.696 22.5985 207.76 22.2784 207.839 21.8807C207.919 21.483 207.999 21.0379 208.078 20.5455C208.161 20.0568 208.23 19.5568 208.283 19.0455L208.351 18.4091H209.805ZM217.449 20H215.972L220.244 8.36364H221.699L225.972 20H224.494L221.017 10.2045H220.926L217.449 20ZM217.994 15.4545H223.949V16.7045H217.994V15.4545ZM228.943 8.36364V20H227.602V8.36364H228.943ZM232.74 14.75V20H231.399V8.36364H232.74V12.6364H232.854C233.058 12.1856 233.365 11.8277 233.774 11.5625C234.187 11.2936 234.736 11.1591 235.422 11.1591C236.017 11.1591 236.537 11.2784 236.984 11.517C237.431 11.7519 237.778 12.1136 238.024 12.6023C238.274 13.0871 238.399 13.7045 238.399 14.4545V20H237.058V14.5455C237.058 13.8523 236.878 13.3163 236.518 12.9375C236.162 12.5549 235.668 12.3636 235.036 12.3636C234.596 12.3636 234.202 12.4564 233.854 12.642C233.509 12.8277 233.236 13.0985 233.036 13.4545C232.839 13.8106 232.74 14.2424 232.74 14.75ZM243.42 20.2045C242.867 20.2045 242.366 20.1004 241.915 19.892C241.464 19.6799 241.106 19.375 240.841 18.9773C240.576 18.5758 240.443 18.0909 240.443 17.5227C240.443 17.0227 240.542 16.6174 240.739 16.3068C240.936 15.9924 241.199 15.7462 241.528 15.5682C241.858 15.3902 242.222 15.2576 242.619 15.1705C243.021 15.0795 243.424 15.0076 243.83 14.9545C244.36 14.8864 244.79 14.8352 245.119 14.8011C245.453 14.7633 245.695 14.7008 245.847 14.6136C246.002 14.5265 246.08 14.375 246.08 14.1591V14.1136C246.08 13.553 245.926 13.1174 245.619 12.8068C245.316 12.4962 244.856 12.3409 244.239 12.3409C243.598 12.3409 243.097 12.4811 242.733 12.7614C242.369 13.0417 242.114 13.3409 241.966 13.6591L240.693 13.2045C240.92 12.6742 241.223 12.2614 241.602 11.9659C241.985 11.6667 242.402 11.4583 242.852 11.3409C243.307 11.2197 243.754 11.1591 244.193 11.1591C244.473 11.1591 244.795 11.1932 245.159 11.2614C245.527 11.3258 245.881 11.4602 246.222 11.6648C246.566 11.8693 246.852 12.178 247.08 12.5909C247.307 13.0038 247.42 13.5568 247.42 14.25V20H246.08V18.8182H246.011C245.92 19.0076 245.769 19.2102 245.557 19.4261C245.345 19.642 245.063 19.8258 244.71 19.9773C244.358 20.1288 243.928 20.2045 243.42 20.2045ZM243.625 19C244.155 19 244.602 18.8958 244.966 18.6875C245.333 18.4792 245.61 18.2102 245.795 17.8807C245.985 17.5511 246.08 17.2045 246.08 16.8409V15.6136C246.023 15.6818 245.898 15.7443 245.705 15.8011C245.515 15.8542 245.295 15.9015 245.045 15.9432C244.799 15.9811 244.559 16.0152 244.324 16.0455C244.093 16.072 243.905 16.0947 243.761 16.1136C243.413 16.1591 243.087 16.233 242.784 16.3352C242.485 16.4337 242.242 16.5833 242.057 16.7841C241.875 16.9811 241.784 17.25 241.784 17.5909C241.784 18.0568 241.956 18.4091 242.301 18.6477C242.65 18.8826 243.091 19 243.625 19ZM249.868 20V11.2727H251.163V12.6364H251.277C251.459 12.1705 251.752 11.8087 252.158 11.5511C252.563 11.2898 253.05 11.1591 253.618 11.1591C254.194 11.1591 254.673 11.2898 255.055 11.5511C255.442 11.8087 255.743 12.1705 255.959 12.6364H256.05C256.273 12.1856 256.608 11.8277 257.055 11.5625C257.502 11.2936 258.038 11.1591 258.663 11.1591C259.444 11.1591 260.082 11.4034 260.578 11.892C261.074 12.3769 261.322 13.1326 261.322 14.1591V20H259.982V14.1591C259.982 13.5152 259.805 13.0549 259.453 12.7784C259.101 12.5019 258.686 12.3636 258.209 12.3636C257.595 12.3636 257.12 12.5492 256.783 12.9205C256.446 13.2879 256.277 13.7538 256.277 14.3182V20H254.913V14.0227C254.913 13.5265 254.752 13.1269 254.43 12.8239C254.108 12.517 253.694 12.3636 253.186 12.3636C252.838 12.3636 252.512 12.4564 252.209 12.642C251.91 12.8277 251.667 13.0852 251.482 13.4148C251.3 13.7405 251.209 14.1174 251.209 14.5455V20H249.868ZM263.956 20V8.36364H265.297V12.6591H265.411C265.509 12.5076 265.645 12.3144 265.82 12.0795C265.998 11.8409 266.251 11.6288 266.581 11.4432C266.914 11.2538 267.365 11.1591 267.933 11.1591C268.668 11.1591 269.316 11.3428 269.876 11.7102C270.437 12.0777 270.875 12.5985 271.189 13.2727C271.503 13.947 271.661 14.7424 271.661 15.6591C271.661 16.5833 271.503 17.3845 271.189 18.0625C270.875 18.7367 270.439 19.2595 269.882 19.6307C269.325 19.9981 268.683 20.1818 267.956 20.1818C267.395 20.1818 266.946 20.089 266.609 19.9034C266.272 19.714 266.013 19.5 265.831 19.2614C265.649 19.0189 265.509 18.8182 265.411 18.6591H265.251V20H263.956ZM265.274 15.6364C265.274 16.2955 265.371 16.8769 265.564 17.3807C265.757 17.8807 266.039 18.2727 266.411 18.5568C266.782 18.8371 267.236 18.9773 267.774 18.9773C268.335 18.9773 268.803 18.8295 269.178 18.5341C269.556 18.2348 269.84 17.8333 270.03 17.3295C270.223 16.822 270.32 16.2576 270.32 15.6364C270.32 15.0227 270.225 14.4697 270.036 13.9773C269.85 13.4811 269.568 13.089 269.189 12.8011C268.814 12.5095 268.342 12.3636 267.774 12.3636C267.229 12.3636 266.77 12.5019 266.399 12.7784C266.028 13.0511 265.748 13.4337 265.558 13.9261C265.369 14.4148 265.274 14.9848 265.274 15.6364ZM273.712 20V11.2727H275.007V12.5909H275.098C275.257 12.1591 275.545 11.8087 275.962 11.5398C276.378 11.2708 276.848 11.1364 277.371 11.1364C277.469 11.1364 277.592 11.1383 277.74 11.142C277.888 11.1458 278 11.1515 278.075 11.1591V12.5227C278.03 12.5114 277.926 12.4943 277.763 12.4716C277.604 12.4451 277.435 12.4318 277.257 12.4318C276.833 12.4318 276.454 12.5208 276.121 12.6989C275.791 12.8731 275.53 13.1155 275.337 13.4261C275.147 13.733 275.053 14.0833 275.053 14.4773V20H273.712ZM282.233 20.2045C281.68 20.2045 281.178 20.1004 280.727 19.892C280.277 19.6799 279.919 19.375 279.653 18.9773C279.388 18.5758 279.256 18.0909 279.256 17.5227C279.256 17.0227 279.354 16.6174 279.551 16.3068C279.748 15.9924 280.011 15.7462 280.341 15.5682C280.67 15.3902 281.034 15.2576 281.432 15.1705C281.833 15.0795 282.237 15.0076 282.642 14.9545C283.172 14.8864 283.602 14.8352 283.932 14.8011C284.265 14.7633 284.508 14.7008 284.659 14.6136C284.814 14.5265 284.892 14.375 284.892 14.1591V14.1136C284.892 13.553 284.739 13.1174 284.432 12.8068C284.129 12.4962 283.669 12.3409 283.051 12.3409C282.411 12.3409 281.909 12.4811 281.545 12.7614C281.182 13.0417 280.926 13.3409 280.778 13.6591L279.506 13.2045C279.733 12.6742 280.036 12.2614 280.415 11.9659C280.797 11.6667 281.214 11.4583 281.665 11.3409C282.119 11.2197 282.566 11.1591 283.006 11.1591C283.286 11.1591 283.608 11.1932 283.972 11.2614C284.339 11.3258 284.693 11.4602 285.034 11.6648C285.379 11.8693 285.665 12.178 285.892 12.5909C286.119 13.0038 286.233 13.5568 286.233 14.25V20H284.892V18.8182H284.824C284.733 19.0076 284.581 19.2102 284.369 19.4261C284.157 19.642 283.875 19.8258 283.523 19.9773C283.17 20.1288 282.741 20.2045 282.233 20.2045ZM282.438 19C282.968 19 283.415 18.8958 283.778 18.6875C284.146 18.4792 284.422 18.2102 284.608 17.8807C284.797 17.5511 284.892 17.2045 284.892 16.8409V15.6136C284.835 15.6818 284.71 15.7443 284.517 15.8011C284.328 15.8542 284.108 15.9015 283.858 15.9432C283.612 15.9811 283.371 16.0152 283.136 16.0455C282.905 16.072 282.718 16.0947 282.574 16.1136C282.225 16.1591 281.9 16.233 281.597 16.3352C281.297 16.4337 281.055 16.5833 280.869 16.7841C280.688 16.9811 280.597 17.25 280.597 17.5909C280.597 18.0568 280.769 18.4091 281.114 18.6477C281.462 18.8826 281.903 19 282.438 19ZM290.68 18.4091L290.589 19.0227C290.525 19.4545 290.427 19.9167 290.294 20.4091C290.165 20.9015 290.031 21.3655 289.891 21.8011C289.75 22.2367 289.635 22.5833 289.544 22.8409H288.521C288.571 22.5985 288.635 22.2784 288.714 21.8807C288.794 21.483 288.874 21.0379 288.953 20.5455C289.036 20.0568 289.105 19.5568 289.158 19.0455L289.226 18.4091H290.68ZM307.21 12H305.801C305.718 11.5947 305.572 11.2386 305.364 10.9318C305.159 10.625 304.909 10.3674 304.614 10.1591C304.322 9.94697 303.998 9.78788 303.642 9.68182C303.286 9.57576 302.915 9.52273 302.528 9.52273C301.824 9.52273 301.186 9.70076 300.614 10.0568C300.045 10.4129 299.593 10.9375 299.256 11.6307C298.922 12.3239 298.756 13.1742 298.756 14.1818C298.756 15.1894 298.922 16.0398 299.256 16.733C299.593 17.4261 300.045 17.9508 300.614 18.3068C301.186 18.6629 301.824 18.8409 302.528 18.8409C302.915 18.8409 303.286 18.7879 303.642 18.6818C303.998 18.5758 304.322 18.4186 304.614 18.2102C304.909 17.9981 305.159 17.7386 305.364 17.4318C305.572 17.1212 305.718 16.7652 305.801 16.3636H307.21C307.104 16.9583 306.911 17.4905 306.631 17.9602C306.35 18.4299 306.002 18.8295 305.585 19.1591C305.169 19.4848 304.701 19.733 304.182 19.9034C303.667 20.0739 303.116 20.1591 302.528 20.1591C301.536 20.1591 300.653 19.9167 299.881 19.4318C299.108 18.947 298.5 18.2576 298.057 17.3636C297.614 16.4697 297.392 15.4091 297.392 14.1818C297.392 12.9545 297.614 11.8939 298.057 11C298.5 10.1061 299.108 9.41667 299.881 8.93182C300.653 8.44697 301.536 8.20455 302.528 8.20455C303.116 8.20455 303.667 8.28977 304.182 8.46023C304.701 8.63068 305.169 8.88068 305.585 9.21023C306.002 9.53598 306.35 9.93371 306.631 10.4034C306.911 10.8693 307.104 11.4015 307.21 12ZM309.964 20H308.487L312.76 8.36364H314.214L318.487 20H317.01L313.533 10.2045H313.442L309.964 20ZM310.51 15.4545H316.464V16.7045H310.51V15.4545ZM328.3 8.20455C328.777 8.20833 329.254 8.29924 329.732 8.47727C330.209 8.6553 330.644 8.95076 331.038 9.36364C331.432 9.77273 331.749 10.3314 331.987 11.0398C332.226 11.7481 332.345 12.6364 332.345 13.7045C332.345 14.7386 332.247 15.6572 332.05 16.4602C331.857 17.2595 331.576 17.9337 331.209 18.483C330.845 19.0322 330.402 19.4489 329.879 19.733C329.36 20.017 328.773 20.1591 328.118 20.1591C327.466 20.1591 326.885 20.0303 326.374 19.7727C325.866 19.5114 325.449 19.1496 325.124 18.6875C324.802 18.2216 324.595 17.6818 324.504 17.0682H325.891C326.016 17.6023 326.264 18.0436 326.635 18.392C327.01 18.7367 327.504 18.9091 328.118 18.9091C329.016 18.9091 329.724 18.517 330.243 17.733C330.766 16.9489 331.027 15.8409 331.027 14.4091H330.936C330.724 14.7273 330.472 15.0019 330.18 15.233C329.889 15.464 329.565 15.642 329.209 15.767C328.853 15.892 328.474 15.9545 328.072 15.9545C327.406 15.9545 326.794 15.7898 326.237 15.4602C325.684 15.1269 325.241 14.6705 324.908 14.0909C324.578 13.5076 324.413 12.8409 324.413 12.0909C324.413 11.3788 324.572 10.7273 324.891 10.1364C325.213 9.54167 325.663 9.06818 326.243 8.71591C326.826 8.36364 327.512 8.19318 328.3 8.20455ZM328.3 9.45455C327.822 9.45455 327.393 9.57386 327.01 9.8125C326.631 10.0473 326.33 10.3655 326.107 10.767C325.887 11.1648 325.777 11.6061 325.777 12.0909C325.777 12.5758 325.883 13.017 326.095 13.4148C326.311 13.8087 326.605 14.1231 326.976 14.358C327.351 14.589 327.777 14.7045 328.254 14.7045C328.614 14.7045 328.949 14.6345 329.26 14.4943C329.571 14.3504 329.841 14.1553 330.072 13.9091C330.307 13.6591 330.491 13.3769 330.624 13.0625C330.756 12.7443 330.822 12.4129 330.822 12.0682C330.822 11.6136 330.713 11.1875 330.493 10.7898C330.277 10.392 329.978 10.0701 329.595 9.82386C329.216 9.57765 328.785 9.45455 328.3 9.45455ZM338.67 8.36364V20H337.261V9.84091H337.193L334.352 11.7273V10.2955L337.261 8.36364H338.67ZM345.744 20.1591C344.964 20.1591 344.275 20.0208 343.676 19.7443C343.081 19.464 342.617 19.0795 342.284 18.5909C341.951 18.0985 341.786 17.5379 341.79 16.9091C341.786 16.4167 341.883 15.9621 342.08 15.5455C342.277 15.125 342.545 14.7746 342.886 14.4943C343.231 14.2102 343.616 14.0303 344.04 13.9545V13.8864C343.483 13.7424 343.04 13.4299 342.71 12.9489C342.381 12.464 342.218 11.9129 342.222 11.2955C342.218 10.7045 342.367 10.1761 342.67 9.71023C342.973 9.24432 343.39 8.87689 343.92 8.60795C344.455 8.33901 345.063 8.20455 345.744 8.20455C346.419 8.20455 347.021 8.33901 347.551 8.60795C348.081 8.87689 348.498 9.24432 348.801 9.71023C349.108 10.1761 349.263 10.7045 349.267 11.2955C349.263 11.9129 349.095 12.464 348.761 12.9489C348.432 13.4299 347.994 13.7424 347.449 13.8864V13.9545C347.869 14.0303 348.248 14.2102 348.585 14.4943C348.922 14.7746 349.191 15.125 349.392 15.5455C349.593 15.9621 349.695 16.4167 349.699 16.9091C349.695 17.5379 349.525 18.0985 349.188 18.5909C348.854 19.0795 348.39 19.464 347.795 19.7443C347.205 20.0208 346.521 20.1591 345.744 20.1591ZM345.744 18.9091C346.271 18.9091 346.725 18.8239 347.108 18.6534C347.491 18.483 347.786 18.2424 347.994 17.9318C348.203 17.6212 348.309 17.2576 348.312 16.8409C348.309 16.4015 348.195 16.0133 347.972 15.6761C347.748 15.339 347.443 15.0739 347.057 14.8807C346.674 14.6875 346.237 14.5909 345.744 14.5909C345.248 14.5909 344.805 14.6875 344.415 14.8807C344.028 15.0739 343.723 15.339 343.5 15.6761C343.28 16.0133 343.172 16.4015 343.176 16.8409C343.172 17.2576 343.273 17.6212 343.477 17.9318C343.686 18.2424 343.983 18.483 344.369 18.6534C344.756 18.8239 345.214 18.9091 345.744 18.9091ZM345.744 13.3864C346.161 13.3864 346.53 13.303 346.852 13.1364C347.178 12.9697 347.434 12.7367 347.619 12.4375C347.805 12.1383 347.9 11.7879 347.903 11.3864C347.9 10.9924 347.807 10.6496 347.625 10.358C347.443 10.0625 347.191 9.83523 346.869 9.67614C346.547 9.51326 346.172 9.43182 345.744 9.43182C345.309 9.43182 344.928 9.51326 344.602 9.67614C344.277 9.83523 344.025 10.0625 343.847 10.358C343.669 10.6496 343.581 10.9924 343.585 11.3864C343.581 11.7879 343.67 12.1383 343.852 12.4375C344.038 12.7367 344.294 12.9697 344.619 13.1364C344.945 13.303 345.32 13.3864 345.744 13.3864ZM355.672 20.1591C354.816 20.1591 354.087 19.9261 353.484 19.4602C352.882 18.9905 352.422 18.3106 352.104 17.4205C351.786 16.5265 351.626 15.447 351.626 14.1818C351.626 12.9242 351.786 11.8504 352.104 10.9602C352.426 10.0663 352.888 9.38447 353.49 8.91477C354.096 8.44129 354.823 8.20455 355.672 8.20455C356.52 8.20455 357.246 8.44129 357.848 8.91477C358.454 9.38447 358.916 10.0663 359.234 10.9602C359.556 11.8504 359.717 12.9242 359.717 14.1818C359.717 15.447 359.558 16.5265 359.24 17.4205C358.922 18.3106 358.462 18.9905 357.859 19.4602C357.257 19.9261 356.528 20.1591 355.672 20.1591ZM355.672 18.9091C356.52 18.9091 357.179 18.5 357.649 17.6818C358.119 16.8636 358.354 15.697 358.354 14.1818C358.354 13.1742 358.246 12.3163 358.03 11.608C357.818 10.8996 357.511 10.3598 357.109 9.98864C356.712 9.61742 356.232 9.43182 355.672 9.43182C354.831 9.43182 354.174 9.84659 353.7 10.6761C353.227 11.5019 352.99 12.6705 352.99 14.1818C352.99 15.1894 353.096 16.0455 353.308 16.75C353.52 17.4545 353.825 17.9905 354.223 18.358C354.625 18.7254 355.107 18.9091 355.672 18.9091ZM365.808 20.1591C365.058 20.1591 364.39 20.0303 363.803 19.7727C363.219 19.5152 362.755 19.1572 362.411 18.6989C362.07 18.2367 361.884 17.7008 361.854 17.0909H363.286C363.316 17.4659 363.445 17.7898 363.672 18.0625C363.899 18.3314 364.196 18.5398 364.564 18.6875C364.931 18.8352 365.339 18.9091 365.786 18.9091C366.286 18.9091 366.729 18.822 367.115 18.6477C367.501 18.4735 367.804 18.2311 368.024 17.9205C368.244 17.6098 368.354 17.25 368.354 16.8409C368.354 16.4129 368.248 16.036 368.036 15.7102C367.823 15.3807 367.513 15.1231 367.104 14.9375C366.695 14.7519 366.195 14.6591 365.604 14.6591H364.672V13.4091H365.604C366.066 13.4091 366.471 13.3258 366.82 13.1591C367.172 12.9924 367.446 12.7576 367.643 12.4545C367.844 12.1515 367.945 11.7955 367.945 11.3864C367.945 10.9924 367.857 10.6496 367.683 10.358C367.509 10.0663 367.263 9.83901 366.945 9.67614C366.63 9.51326 366.259 9.43182 365.831 9.43182C365.429 9.43182 365.051 9.50568 364.695 9.65341C364.342 9.79735 364.054 10.0076 363.831 10.2841C363.607 10.5568 363.486 10.8864 363.467 11.2727H362.104C362.126 10.6629 362.31 10.1288 362.655 9.67045C363 9.20833 363.45 8.84848 364.007 8.59091C364.568 8.33333 365.183 8.20455 365.854 8.20455C366.573 8.20455 367.191 8.35038 367.706 8.64205C368.221 8.92992 368.617 9.31061 368.893 9.78409C369.17 10.2576 369.308 10.7689 369.308 11.3182C369.308 11.9735 369.136 12.5322 368.791 12.9943C368.45 13.4564 367.986 13.7765 367.399 13.9545V14.0455C368.134 14.1667 368.708 14.4792 369.121 14.983C369.534 15.483 369.74 16.1023 369.74 16.8409C369.74 17.4735 369.568 18.0417 369.223 18.5455C368.882 19.0455 368.416 19.4394 367.825 19.7273C367.234 20.0152 366.562 20.1591 365.808 20.1591Z" fill="#151515"/>
</svg>
