<svg width="155" height="23" viewBox="0 0 155 23" fill="none" xmlns="http://www.w3.org/2000/svg">
<path d="M0.547163 23V0.179348H17.7271V8.81767L14.0204 11.1062L17.7271 13.5881V23H0.547163ZM10.6682 5.69112H7.60609V9.33339H10.6682V5.69112ZM7.60609 17.1659H10.6682V13.0724H7.60609V17.1659ZM20.8184 23V4.36958L25.75 0.179348H37.9339V18.8098L33.0023 23H20.8184ZM27.8774 16.7469H30.875V5.98121H27.8774V16.7469ZM41.0267 23V0.179348H48.1824V17.1981H56.0793V23H41.0267ZM58.2132 23V0.179348H68.302L75.3287 6.01344V23H58.2132ZM68.2698 8.23749L65.2722 5.43325V17.1981H68.2698V8.23749Z" fill="#151515"/>
<path d="M78.3271 23V0.179348H95.4426V7.04488L88.3837 9.52679V5.82004H85.4827V16.908H88.3837V13.0079H95.4426V23H78.3271ZM98.2498 23V7.754L104.406 0.179348H115.365V23H108.306V14.1683H105.309V23H98.2498ZM108.306 10.4615V4.8853L105.309 8.81767V10.4615H108.306ZM118.46 23V0.179348H135.576V11.7508L130.354 13.0079L135.576 17.037V23H128.517V15.9733L125.519 13.717V23H118.46ZM125.519 9.43009L128.517 8.65651V5.82004H125.519V9.43009ZM149.598 23H138.381V17.1981H147.47V13.0079H138.381V4.62744L143.312 0.179348H154.529V5.82004H145.44V9.26893H154.529V17.7783L149.598 23Z" fill="#BC221D"/>
</svg>
