<svg width="116" height="32" viewBox="0 0 116 32" fill="none" xmlns="http://www.w3.org/2000/svg">
<rect width="116" height="32" rx="3" fill="white"/>
<path d="M49.1477 9.36364H51.7273L55.1818 17.7955H55.3182L58.7727 9.36364H61.3523V21H59.3295V13.0057H59.2216L56.0057 20.9659H54.4943L51.2784 12.9886H51.1705V21H49.1477V9.36364ZM67.4205 21.1705C66.5455 21.1705 65.7898 20.9886 65.1534 20.625C64.5208 20.2576 64.0341 19.7386 63.6932 19.0682C63.3523 18.3939 63.1818 17.6004 63.1818 16.6875C63.1818 15.7898 63.3523 15.0019 63.6932 14.3239C64.0379 13.642 64.5189 13.1117 65.1364 12.733C65.7538 12.3504 66.4792 12.1591 67.3125 12.1591C67.8504 12.1591 68.358 12.2462 68.8352 12.4205C69.3163 12.5909 69.7405 12.8561 70.108 13.2159C70.4792 13.5758 70.7708 14.0341 70.983 14.5909C71.1951 15.1439 71.3011 15.803 71.3011 16.5682V17.1989H64.1477V15.8125H69.3295C69.3258 15.4186 69.2405 15.0682 69.0739 14.7614C68.9072 14.4508 68.6742 14.2064 68.375 14.0284C68.0795 13.8504 67.7348 13.7614 67.3409 13.7614C66.9205 13.7614 66.5511 13.8636 66.233 14.0682C65.9148 14.2689 65.6667 14.5341 65.4886 14.8636C65.3144 15.1894 65.2254 15.5473 65.2216 15.9375V17.1477C65.2216 17.6553 65.3144 18.0909 65.5 18.4545C65.6856 18.8144 65.9451 19.0909 66.2784 19.2841C66.6117 19.4735 67.0019 19.5682 67.4489 19.5682C67.7481 19.5682 68.0189 19.5265 68.2614 19.4432C68.5038 19.3561 68.714 19.2292 68.892 19.0625C69.0701 18.8958 69.2045 18.6894 69.2955 18.4432L71.2159 18.6591C71.0947 19.1667 70.8636 19.6098 70.5227 19.9886C70.1856 20.3636 69.7538 20.6553 69.2273 20.8636C68.7008 21.0682 68.0985 21.1705 67.4205 21.1705ZM75.098 15.8864V21H73.0412V12.2727H75.0071V13.7557H75.1094C75.3101 13.267 75.6302 12.8788 76.0696 12.5909C76.5128 12.303 77.0601 12.1591 77.7116 12.1591C78.3139 12.1591 78.8385 12.2879 79.2855 12.5455C79.7363 12.803 80.0848 13.1761 80.331 13.6648C80.581 14.1534 80.7041 14.7462 80.7003 15.4432V21H78.6435V15.7614C78.6435 15.178 78.492 14.7216 78.1889 14.392C77.8897 14.0625 77.4749 13.8977 76.9446 13.8977C76.5848 13.8977 76.2647 13.9773 75.9844 14.1364C75.7079 14.2917 75.4901 14.517 75.331 14.8125C75.1757 15.108 75.098 15.4659 75.098 15.8864ZM88.3537 17.3295V12.2727H90.4105V21H88.4162V19.4489H88.3253C88.1283 19.9375 87.8045 20.3371 87.3537 20.6477C86.9067 20.9583 86.3556 21.1136 85.7003 21.1136C85.1283 21.1136 84.6226 20.9867 84.1832 20.733C83.7476 20.4754 83.4067 20.1023 83.1605 19.6136C82.9143 19.1212 82.7912 18.5265 82.7912 17.8295V12.2727H84.848V17.5114C84.848 18.0644 84.9995 18.5038 85.3026 18.8295C85.6056 19.1553 86.0033 19.3182 86.4957 19.3182C86.7988 19.3182 87.0923 19.2443 87.3764 19.0966C87.6605 18.9489 87.8935 18.7292 88.0753 18.4375C88.2609 18.142 88.3537 17.7727 88.3537 17.3295Z" fill="#151515"/>
<path d="M16 10H34" stroke="#151515" stroke-width="0.8"/>
<path d="M16 17H34" stroke="#151515" stroke-width="0.8"/>
<path d="M16 24H34" stroke="#151515" stroke-width="0.8"/>
</svg>
