<svg width="920" height="137" viewBox="0 0 920 137" fill="none" xmlns="http://www.w3.org/2000/svg">
<rect width="236" height="137" fill="url(#paint0_linear_1_326)"/>
<path d="M88.4 50.5V49.9H83.25V45.5H94V50L89.775 63H84.7V61.6L88.4 50.5ZM110.375 59.18L106.955 50.74V49H111.335L112.395 54.44H112.715L113.795 49H118.155V50.74L114.735 59.18V63H110.375V59.18ZM128.516 63H119.156V49H128.516V50.74L127.816 52.52H123.516V54.08H127.816V57.58H123.516V59.5H128.516V63ZM134.283 56.68H135.563L135.163 52.52H134.683L134.283 56.68ZM131.283 49H138.563L140.523 61.26V63H136.143L135.883 60.18H133.963L133.683 63H129.323V61.26L131.283 49ZM147.835 52.52H146.095V55.14H147.835V52.52ZM141.715 49H150.475C151.495 49 152.215 49.72 152.215 50.74V56.24C152.215 56.9 151.715 57.64 151.055 57.82L152.435 61.26V63H148.155L146.975 58.64H146.095V63H141.715V49ZM154.409 56.06C153.449 55.4 153.229 54.8 153.229 53.68V50.74C153.229 49.72 153.949 49 154.989 49H162.589V50.72L161.909 52.52H157.609V53.16L161.409 55.7C162.369 56.34 162.589 56.96 162.589 58.08V61.26C162.589 62.28 161.869 63 160.849 63H153.229V59.5H158.209V58.58L154.409 56.06Z" fill="#151515"/>
<path d="M51.9219 85.4205C51.8613 84.8826 51.6113 84.4659 51.1719 84.1705C50.7325 83.8712 50.1795 83.7216 49.5128 83.7216C49.0355 83.7216 48.6226 83.7973 48.2741 83.9489C47.9257 84.0966 47.6548 84.3011 47.4616 84.5625C47.2723 84.8201 47.1776 85.1136 47.1776 85.4432C47.1776 85.7197 47.242 85.9583 47.3707 86.1591C47.5033 86.3598 47.6757 86.5284 47.8878 86.6648C48.1037 86.7973 48.3348 86.9091 48.581 87C48.8272 87.0871 49.0639 87.1591 49.2912 87.2159L50.4276 87.5114C50.7988 87.6023 51.1795 87.7254 51.5696 87.8807C51.9598 88.036 52.3215 88.2405 52.6548 88.4943C52.9882 88.7481 53.2571 89.0625 53.4616 89.4375C53.67 89.8125 53.7741 90.2614 53.7741 90.7841C53.7741 91.4432 53.6037 92.0284 53.2628 92.5398C52.9257 93.0511 52.4351 93.4545 51.7912 93.75C51.151 94.0455 50.3764 94.1932 49.4673 94.1932C48.5961 94.1932 47.8423 94.0549 47.206 93.7784C46.5696 93.5019 46.0715 93.1098 45.7116 92.6023C45.3518 92.0909 45.1529 91.4848 45.1151 90.7841H46.8764C46.9105 91.2045 47.0469 91.5549 47.2855 91.8352C47.5279 92.1117 47.8366 92.3182 48.2116 92.4545C48.5904 92.5871 49.0052 92.6534 49.456 92.6534C49.9522 92.6534 50.3935 92.5758 50.7798 92.4205C51.17 92.2614 51.4768 92.0417 51.7003 91.7614C51.9238 91.4773 52.0355 91.1458 52.0355 90.767C52.0355 90.4223 51.937 90.1402 51.7401 89.9205C51.5469 89.7008 51.2836 89.5189 50.9503 89.375C50.6207 89.2311 50.2476 89.1042 49.831 88.9943L48.456 88.6193C47.5241 88.3655 46.7855 87.9924 46.2401 87.5C45.6984 87.0076 45.4276 86.3561 45.4276 85.5455C45.4276 84.875 45.6094 84.2898 45.973 83.7898C46.3366 83.2898 46.8291 82.9015 47.4503 82.625C48.0715 82.3447 48.7723 82.2045 49.5526 82.2045C50.3404 82.2045 51.0355 82.3428 51.6378 82.6193C52.2438 82.8958 52.7211 83.2765 53.0696 83.7614C53.4181 84.2424 53.5999 84.7955 53.6151 85.4205H51.9219ZM61.2642 90.3807V85.2727H62.9688V94H61.2983V92.4886H61.2074C61.0066 92.9545 60.6847 93.3428 60.2415 93.6534C59.8021 93.9602 59.2547 94.1136 58.5994 94.1136C58.0388 94.1136 57.5426 93.9905 57.1108 93.7443C56.6828 93.4943 56.3456 93.125 56.0994 92.6364C55.857 92.1477 55.7358 91.5436 55.7358 90.8239V85.2727H57.4347V90.6193C57.4347 91.214 57.5994 91.6875 57.929 92.0398C58.2585 92.392 58.6866 92.5682 59.2131 92.5682C59.5313 92.5682 59.8475 92.4886 60.1619 92.3295C60.4801 92.1705 60.7434 91.9299 60.9517 91.608C61.1638 91.286 61.268 90.8769 61.2642 90.3807ZM68.9276 94.1761C68.0829 94.1761 67.3556 93.9848 66.7457 93.6023C66.1397 93.2159 65.6738 92.6837 65.348 92.0057C65.0223 91.3277 64.8594 90.5511 64.8594 89.6761C64.8594 88.7898 65.026 88.0076 65.3594 87.3295C65.6927 86.6477 66.1624 86.1155 66.7685 85.733C67.3745 85.3504 68.0885 85.1591 68.9105 85.1591C69.5734 85.1591 70.1643 85.2822 70.6832 85.5284C71.2022 85.7708 71.6207 86.1117 71.9389 86.5511C72.2609 86.9905 72.4522 87.5038 72.5128 88.0909H70.8594C70.7685 87.6818 70.5601 87.3295 70.2344 87.0341C69.9124 86.7386 69.4806 86.5909 68.9389 86.5909C68.4654 86.5909 68.0507 86.7159 67.6946 86.9659C67.3423 87.2121 67.0677 87.5644 66.8707 88.0227C66.6738 88.4773 66.5753 89.0152 66.5753 89.6364C66.5753 90.2727 66.6719 90.822 66.8651 91.2841C67.0582 91.7462 67.331 92.1042 67.6832 92.358C68.0393 92.6117 68.4579 92.7386 68.9389 92.7386C69.2609 92.7386 69.5526 92.6799 69.8139 92.5625C70.0791 92.4413 70.3007 92.2689 70.4787 92.0455C70.6605 91.822 70.7874 91.553 70.8594 91.2386H72.5128C72.4522 91.803 72.2685 92.3068 71.9616 92.75C71.6548 93.1932 71.2438 93.5417 70.7287 93.7955C70.2173 94.0492 69.617 94.1761 68.9276 94.1761ZM78.0057 94.1761C77.161 94.1761 76.4337 93.9848 75.8239 93.6023C75.2178 93.2159 74.7519 92.6837 74.4261 92.0057C74.1004 91.3277 73.9375 90.5511 73.9375 89.6761C73.9375 88.7898 74.1042 88.0076 74.4375 87.3295C74.7708 86.6477 75.2405 86.1155 75.8466 85.733C76.4527 85.3504 77.1667 85.1591 77.9886 85.1591C78.6515 85.1591 79.2424 85.2822 79.7614 85.5284C80.2803 85.7708 80.6989 86.1117 81.017 86.5511C81.339 86.9905 81.5303 87.5038 81.5909 88.0909H79.9375C79.8466 87.6818 79.6383 87.3295 79.3125 87.0341C78.9905 86.7386 78.5587 86.5909 78.017 86.5909C77.5436 86.5909 77.1288 86.7159 76.7727 86.9659C76.4205 87.2121 76.1458 87.5644 75.9489 88.0227C75.7519 88.4773 75.6534 89.0152 75.6534 89.6364C75.6534 90.2727 75.75 90.822 75.9432 91.2841C76.1364 91.7462 76.4091 92.1042 76.7614 92.358C77.1174 92.6117 77.536 92.7386 78.017 92.7386C78.339 92.7386 78.6307 92.6799 78.892 92.5625C79.1572 92.4413 79.3788 92.2689 79.5568 92.0455C79.7386 91.822 79.8655 91.553 79.9375 91.2386H81.5909C81.5303 91.803 81.3466 92.3068 81.0398 92.75C80.733 93.1932 80.322 93.5417 79.8068 93.7955C79.2955 94.0492 78.6951 94.1761 78.0057 94.1761ZM87.169 94.1761C86.3092 94.1761 85.5687 93.9924 84.9474 93.625C84.33 93.2538 83.8527 92.733 83.5156 92.0625C83.1823 91.3883 83.0156 90.5985 83.0156 89.6932C83.0156 88.7992 83.1823 88.0114 83.5156 87.3295C83.8527 86.6477 84.3224 86.1155 84.9247 85.733C85.5308 85.3504 86.2391 85.1591 87.0497 85.1591C87.5421 85.1591 88.0194 85.2405 88.4815 85.4034C88.9437 85.5663 89.3584 85.822 89.7259 86.1705C90.0933 86.5189 90.383 86.9716 90.5952 87.5284C90.8073 88.0814 90.9134 88.7538 90.9134 89.5455V90.1477H83.9759V88.875H89.2486C89.2486 88.428 89.1577 88.0322 88.9759 87.6875C88.794 87.339 88.5384 87.0644 88.2088 86.8636C87.883 86.6629 87.5005 86.5625 87.0611 86.5625C86.5838 86.5625 86.1671 86.6799 85.8111 86.9148C85.4588 87.1458 85.1861 87.4489 84.9929 87.8239C84.8035 88.1951 84.7088 88.5985 84.7088 89.0341V90.0284C84.7088 90.6117 84.8111 91.108 85.0156 91.517C85.224 91.9261 85.5137 92.2386 85.8849 92.4545C86.2562 92.6667 86.6899 92.7727 87.1861 92.7727C87.508 92.7727 87.8016 92.7273 88.0668 92.6364C88.3319 92.5417 88.5611 92.4015 88.7543 92.2159C88.9474 92.0303 89.0952 91.8011 89.1974 91.5284L90.8054 91.8182C90.6766 92.2917 90.4455 92.7064 90.1122 93.0625C89.7827 93.4148 89.3679 93.6894 88.8679 93.8864C88.3717 94.0795 87.8054 94.1761 87.169 94.1761ZM99.3381 87.4034L97.7983 87.6761C97.7339 87.4792 97.6316 87.2917 97.4915 87.1136C97.3551 86.9356 97.1695 86.7898 96.9347 86.6761C96.6998 86.5625 96.4063 86.5057 96.054 86.5057C95.5729 86.5057 95.1714 86.6136 94.8494 86.8295C94.5275 87.0417 94.3665 87.3163 94.3665 87.6534C94.3665 87.9451 94.4744 88.1799 94.6903 88.358C94.9063 88.536 95.2547 88.6818 95.7358 88.7955L97.1222 89.1136C97.9252 89.2992 98.5237 89.5852 98.9176 89.9716C99.3116 90.358 99.5085 90.8598 99.5085 91.4773C99.5085 92 99.357 92.4659 99.054 92.875C98.7547 93.2803 98.3362 93.5985 97.7983 93.8295C97.2642 94.0606 96.6449 94.1761 95.9403 94.1761C94.9631 94.1761 94.1657 93.9678 93.5483 93.5511C92.9309 93.1307 92.5521 92.5341 92.4119 91.7614L94.054 91.5114C94.1563 91.9394 94.3665 92.2633 94.6847 92.483C95.0028 92.6989 95.4176 92.8068 95.929 92.8068C96.4858 92.8068 96.9309 92.6913 97.2642 92.4602C97.5975 92.2254 97.7642 91.9394 97.7642 91.6023C97.7642 91.3295 97.6619 91.1004 97.4574 90.9148C97.2566 90.7292 96.9479 90.589 96.5312 90.4943L95.054 90.1705C94.2396 89.9848 93.6373 89.6894 93.2472 89.2841C92.8608 88.8788 92.6676 88.3655 92.6676 87.7443C92.6676 87.2292 92.8116 86.7784 93.0994 86.392C93.3873 86.0057 93.785 85.7045 94.2926 85.4886C94.8002 85.2689 95.3816 85.1591 96.0369 85.1591C96.9801 85.1591 97.7225 85.3636 98.2642 85.7727C98.8059 86.178 99.1638 86.7216 99.3381 87.4034ZM107.916 87.4034L106.376 87.6761C106.312 87.4792 106.21 87.2917 106.07 87.1136C105.933 86.9356 105.748 86.7898 105.513 86.6761C105.278 86.5625 104.984 86.5057 104.632 86.5057C104.151 86.5057 103.75 86.6136 103.428 86.8295C103.106 87.0417 102.945 87.3163 102.945 87.6534C102.945 87.9451 103.053 88.1799 103.268 88.358C103.484 88.536 103.833 88.6818 104.314 88.7955L105.7 89.1136C106.503 89.2992 107.102 89.5852 107.496 89.9716C107.89 90.358 108.087 90.8598 108.087 91.4773C108.087 92 107.935 92.4659 107.632 92.875C107.333 93.2803 106.914 93.5985 106.376 93.8295C105.842 94.0606 105.223 94.1761 104.518 94.1761C103.541 94.1761 102.744 93.9678 102.126 93.5511C101.509 93.1307 101.13 92.5341 100.99 91.7614L102.632 91.5114C102.734 91.9394 102.945 92.2633 103.263 92.483C103.581 92.6989 103.996 92.8068 104.507 92.8068C105.064 92.8068 105.509 92.6913 105.842 92.4602C106.176 92.2254 106.342 91.9394 106.342 91.6023C106.342 91.3295 106.24 91.1004 106.036 90.9148C105.835 90.7292 105.526 90.589 105.109 90.4943L103.632 90.1705C102.818 89.9848 102.215 89.6894 101.825 89.2841C101.439 88.8788 101.246 88.3655 101.246 87.7443C101.246 87.2292 101.39 86.7784 101.678 86.392C101.965 86.0057 102.363 85.7045 102.871 85.4886C103.378 85.2689 103.96 85.1591 104.615 85.1591C105.558 85.1591 106.301 85.3636 106.842 85.7727C107.384 86.178 107.742 86.7216 107.916 87.4034ZM114.108 85.2727V86.6364H109.176V85.2727H114.108ZM110.528 94V84.2614C110.528 83.7159 110.648 83.2633 110.886 82.9034C111.125 82.5398 111.441 82.2689 111.835 82.0909C112.229 81.9091 112.657 81.8182 113.119 81.8182C113.46 81.8182 113.752 81.8466 113.994 81.9034C114.237 81.9564 114.417 82.0057 114.534 82.0511L114.136 83.4261C114.057 83.4034 113.955 83.3769 113.83 83.3466C113.705 83.3125 113.553 83.2955 113.375 83.2955C112.962 83.2955 112.667 83.3977 112.489 83.6023C112.314 83.8068 112.227 84.1023 112.227 84.4886V94H110.528ZM121.389 90.3807V85.2727H123.094V94H121.423V92.4886H121.332C121.132 92.9545 120.81 93.3428 120.366 93.6534C119.927 93.9602 119.38 94.1136 118.724 94.1136C118.164 94.1136 117.668 93.9905 117.236 93.7443C116.808 93.4943 116.471 93.125 116.224 92.6364C115.982 92.1477 115.861 91.5436 115.861 90.8239V85.2727H117.56V90.6193C117.56 91.214 117.724 91.6875 118.054 92.0398C118.384 92.392 118.812 92.5682 119.338 92.5682C119.656 92.5682 119.973 92.4886 120.287 92.3295C120.605 92.1705 120.868 91.9299 121.077 91.608C121.289 91.286 121.393 90.8769 121.389 90.3807ZM127.075 82.3636V94H125.376V82.3636H127.075ZM131.06 82.3636V94H129.361V82.3636H131.06ZM134.419 97.2727C134.165 97.2727 133.934 97.2519 133.726 97.2102C133.518 97.1723 133.362 97.1307 133.26 97.0852L133.669 95.6932C133.98 95.7765 134.256 95.8125 134.499 95.8011C134.741 95.7898 134.955 95.6989 135.141 95.5284C135.33 95.358 135.497 95.0795 135.641 94.6932L135.851 94.1136L132.658 85.2727H134.476L136.686 92.0455H136.777L138.987 85.2727H140.811L137.214 95.1648C137.048 95.6193 136.836 96.0038 136.578 96.3182C136.321 96.6364 136.014 96.875 135.658 97.0341C135.302 97.1932 134.889 97.2727 134.419 97.2727ZM148.534 94L145.966 85.2727H147.722L149.432 91.6818H149.517L151.233 85.2727H152.989L154.693 91.6534H154.778L156.477 85.2727H158.233L155.67 94H153.938L152.165 87.6989H152.034L150.261 94H148.534ZM163.256 94.1761C162.438 94.1761 161.723 93.9886 161.114 93.6136C160.504 93.2386 160.03 92.714 159.693 92.0398C159.356 91.3655 159.188 90.5777 159.188 89.6761C159.188 88.7708 159.356 87.9792 159.693 87.3011C160.03 86.6231 160.504 86.0966 161.114 85.7216C161.723 85.3466 162.438 85.1591 163.256 85.1591C164.074 85.1591 164.788 85.3466 165.398 85.7216C166.008 86.0966 166.481 86.6231 166.818 87.3011C167.155 87.9792 167.324 88.7708 167.324 89.6761C167.324 90.5777 167.155 91.3655 166.818 92.0398C166.481 92.714 166.008 93.2386 165.398 93.6136C164.788 93.9886 164.074 94.1761 163.256 94.1761ZM163.261 92.75C163.792 92.75 164.231 92.6098 164.58 92.3295C164.928 92.0492 165.186 91.6761 165.352 91.2102C165.523 90.7443 165.608 90.2311 165.608 89.6705C165.608 89.1136 165.523 88.6023 165.352 88.1364C165.186 87.6667 164.928 87.2898 164.58 87.0057C164.231 86.7216 163.792 86.5795 163.261 86.5795C162.727 86.5795 162.284 86.7216 161.932 87.0057C161.583 87.2898 161.324 87.6667 161.153 88.1364C160.987 88.6023 160.903 89.1136 160.903 89.6705C160.903 90.2311 160.987 90.7443 161.153 91.2102C161.324 91.6761 161.583 92.0492 161.932 92.3295C162.284 92.6098 162.727 92.75 163.261 92.75ZM169.22 94V85.2727H170.862V86.6591H170.953C171.112 86.1894 171.393 85.8201 171.794 85.5511C172.199 85.2784 172.658 85.142 173.169 85.142C173.275 85.142 173.4 85.1458 173.544 85.1534C173.692 85.161 173.807 85.1705 173.891 85.1818V86.8068C173.822 86.7879 173.701 86.767 173.527 86.7443C173.353 86.7178 173.179 86.7045 173.004 86.7045C172.603 86.7045 172.245 86.7898 171.93 86.9602C171.62 87.1269 171.374 87.3598 171.192 87.6591C171.01 87.9545 170.919 88.2917 170.919 88.6705V94H169.22ZM176.923 91.0398L176.912 88.9659H177.207L180.685 85.2727H182.719L178.753 89.4773H178.486L176.923 91.0398ZM175.361 94V82.3636H177.06V94H175.361ZM180.872 94L177.747 89.8523L178.918 88.6648L182.957 94H180.872ZM190.807 87.4034L189.267 87.6761C189.203 87.4792 189.1 87.2917 188.96 87.1136C188.824 86.9356 188.638 86.7898 188.403 86.6761C188.169 86.5625 187.875 86.5057 187.523 86.5057C187.042 86.5057 186.64 86.6136 186.318 86.8295C185.996 87.0417 185.835 87.3163 185.835 87.6534C185.835 87.9451 185.943 88.1799 186.159 88.358C186.375 88.536 186.723 88.6818 187.205 88.7955L188.591 89.1136C189.394 89.2992 189.992 89.5852 190.386 89.9716C190.78 90.358 190.977 90.8598 190.977 91.4773C190.977 92 190.826 92.4659 190.523 92.875C190.223 93.2803 189.805 93.5985 189.267 93.8295C188.733 94.0606 188.114 94.1761 187.409 94.1761C186.432 94.1761 185.634 93.9678 185.017 93.5511C184.4 93.1307 184.021 92.5341 183.881 91.7614L185.523 91.5114C185.625 91.9394 185.835 92.2633 186.153 92.483C186.472 92.6989 186.886 92.8068 187.398 92.8068C187.955 92.8068 188.4 92.6913 188.733 92.4602C189.066 92.2254 189.233 91.9394 189.233 91.6023C189.233 91.3295 189.131 91.1004 188.926 90.9148C188.725 90.7292 188.417 90.589 188 90.4943L186.523 90.1705C185.708 89.9848 185.106 89.6894 184.716 89.2841C184.33 88.8788 184.136 88.3655 184.136 87.7443C184.136 87.2292 184.28 86.7784 184.568 86.392C184.856 86.0057 185.254 85.7045 185.761 85.4886C186.269 85.2689 186.85 85.1591 187.506 85.1591C188.449 85.1591 189.191 85.3636 189.733 85.7727C190.275 86.178 190.633 86.7216 190.807 87.4034Z" fill="#5A5A5A"/>
<path d="M236 0V137L318 0H236Z" fill="#EEEEEE"/>
<path d="M318 137V0L236 137H318Z" fill="#DCDCDC"/>
<rect width="221" height="137" transform="translate(318)" fill="url(#paint1_linear_1_326)"/>
<path d="M404.875 54.65L399.475 57.7V58.65H406.35V63H394V57.2C394 55.775 394.25 54.975 395.475 54.225L400.9 50.825V49.9H394.875L394 47.675V45.5H404.175C405.45 45.5 406.35 46.4 406.35 47.675V51.675C406.35 53.075 406.15 53.925 404.875 54.65ZM414.729 49.9H413.304V58.65H414.729V49.9ZM418.004 63H410.029C408.754 63 407.854 62.1 407.854 60.825V47.675C407.854 46.4 408.754 45.5 410.029 45.5H418.004C419.279 45.5 420.204 46.4 420.204 47.675V60.825C420.204 62.1 419.304 63 418.004 63ZM429.085 49.9H427.66V58.65H429.085V49.9ZM432.36 63H424.385C423.11 63 422.21 62.1 422.21 60.825V47.675C422.21 46.4 423.11 45.5 424.385 45.5H432.36C433.635 45.5 434.56 46.4 434.56 47.675V60.825C434.56 62.1 433.66 63 432.36 63ZM443.44 49.9H442.015V58.65H443.44V49.9ZM446.715 63H438.74C437.465 63 436.565 62.1 436.565 60.825V47.675C436.565 46.4 437.465 45.5 438.74 45.5H446.715C447.99 45.5 448.915 46.4 448.915 47.675V60.825C448.915 62.1 448.015 63 446.715 63ZM450.421 52.5H454.821V48.1H458.346V52.5H462.771V56.025H458.346V60.45H454.821V56.025H450.421V52.5Z" fill="#151515"/>
<path d="M369.68 85.4205C369.619 84.8826 369.369 84.4659 368.93 84.1705C368.49 83.8712 367.937 83.7216 367.271 83.7216C366.793 83.7216 366.38 83.7973 366.032 83.9489C365.683 84.0966 365.413 84.3011 365.219 84.5625C365.03 84.8201 364.935 85.1136 364.935 85.4432C364.935 85.7197 365 85.9583 365.129 86.1591C365.261 86.3598 365.433 86.5284 365.646 86.6648C365.862 86.7973 366.093 86.9091 366.339 87C366.585 87.0871 366.822 87.1591 367.049 87.2159L368.185 87.5114C368.557 87.6023 368.937 87.7254 369.327 87.8807C369.718 88.036 370.079 88.2405 370.413 88.4943C370.746 88.7481 371.015 89.0625 371.219 89.4375C371.428 89.8125 371.532 90.2614 371.532 90.7841C371.532 91.4432 371.362 92.0284 371.021 92.5398C370.683 93.0511 370.193 93.4545 369.549 93.75C368.909 94.0455 368.134 94.1932 367.225 94.1932C366.354 94.1932 365.6 94.0549 364.964 93.7784C364.327 93.5019 363.829 93.1098 363.469 92.6023C363.11 92.0909 362.911 91.4848 362.873 90.7841H364.634C364.668 91.2045 364.805 91.5549 365.043 91.8352C365.286 92.1117 365.594 92.3182 365.969 92.4545C366.348 92.5871 366.763 92.6534 367.214 92.6534C367.71 92.6534 368.151 92.5758 368.538 92.4205C368.928 92.2614 369.235 92.0417 369.458 91.7614C369.682 91.4773 369.793 91.1458 369.793 90.767C369.793 90.4223 369.695 90.1402 369.498 89.9205C369.305 89.7008 369.041 89.5189 368.708 89.375C368.379 89.2311 368.005 89.1042 367.589 88.9943L366.214 88.6193C365.282 88.3655 364.543 87.9924 363.998 87.5C363.456 87.0076 363.185 86.3561 363.185 85.5455C363.185 84.875 363.367 84.2898 363.731 83.7898C364.094 83.2898 364.587 82.9015 365.208 82.625C365.829 82.3447 366.53 82.2045 367.31 82.2045C368.098 82.2045 368.793 82.3428 369.396 82.6193C370.002 82.8958 370.479 83.2765 370.827 83.7614C371.176 84.2424 371.358 84.7955 371.373 85.4205H369.68ZM379.022 90.3807V85.2727H380.727V94H379.056V92.4886H378.965C378.764 92.9545 378.442 93.3428 377.999 93.6534C377.56 93.9602 377.013 94.1136 376.357 94.1136C375.797 94.1136 375.3 93.9905 374.869 93.7443C374.441 93.4943 374.103 93.125 373.857 92.6364C373.615 92.1477 373.494 91.5436 373.494 90.8239V85.2727H375.192V90.6193C375.192 91.214 375.357 91.6875 375.687 92.0398C376.016 92.392 376.444 92.5682 376.971 92.5682C377.289 92.5682 377.605 92.4886 377.92 92.3295C378.238 92.1705 378.501 91.9299 378.71 91.608C378.922 91.286 379.026 90.8769 379.022 90.3807ZM386.685 94.1761C385.841 94.1761 385.113 93.9848 384.504 93.6023C383.897 93.2159 383.432 92.6837 383.106 92.0057C382.78 91.3277 382.617 90.5511 382.617 89.6761C382.617 88.7898 382.784 88.0076 383.117 87.3295C383.451 86.6477 383.92 86.1155 384.526 85.733C385.132 85.3504 385.846 85.1591 386.668 85.1591C387.331 85.1591 387.922 85.2822 388.441 85.5284C388.96 85.7708 389.379 86.1117 389.697 86.5511C390.019 86.9905 390.21 87.5038 390.271 88.0909H388.617C388.526 87.6818 388.318 87.3295 387.992 87.0341C387.67 86.7386 387.238 86.5909 386.697 86.5909C386.223 86.5909 385.808 86.7159 385.452 86.9659C385.1 87.2121 384.826 87.5644 384.629 88.0227C384.432 88.4773 384.333 89.0152 384.333 89.6364C384.333 90.2727 384.43 90.822 384.623 91.2841C384.816 91.7462 385.089 92.1042 385.441 92.358C385.797 92.6117 386.216 92.7386 386.697 92.7386C387.019 92.7386 387.31 92.6799 387.572 92.5625C387.837 92.4413 388.058 92.2689 388.237 92.0455C388.418 91.822 388.545 91.553 388.617 91.2386H390.271C390.21 91.803 390.026 92.3068 389.719 92.75C389.413 93.1932 389.002 93.5417 388.487 93.7955C387.975 94.0492 387.375 94.1761 386.685 94.1761ZM395.763 94.1761C394.919 94.1761 394.192 93.9848 393.582 93.6023C392.976 93.2159 392.51 92.6837 392.184 92.0057C391.858 91.3277 391.695 90.5511 391.695 89.6761C391.695 88.7898 391.862 88.0076 392.195 87.3295C392.529 86.6477 392.998 86.1155 393.604 85.733C394.21 85.3504 394.924 85.1591 395.746 85.1591C396.409 85.1591 397 85.2822 397.519 85.5284C398.038 85.7708 398.457 86.1117 398.775 86.5511C399.097 86.9905 399.288 87.5038 399.349 88.0909H397.695C397.604 87.6818 397.396 87.3295 397.07 87.0341C396.748 86.7386 396.317 86.5909 395.775 86.5909C395.301 86.5909 394.887 86.7159 394.531 86.9659C394.178 87.2121 393.904 87.5644 393.707 88.0227C393.51 88.4773 393.411 89.0152 393.411 89.6364C393.411 90.2727 393.508 90.822 393.701 91.2841C393.894 91.7462 394.167 92.1042 394.519 92.358C394.875 92.6117 395.294 92.7386 395.775 92.7386C396.097 92.7386 396.388 92.6799 396.65 92.5625C396.915 92.4413 397.137 92.2689 397.315 92.0455C397.496 91.822 397.623 91.553 397.695 91.2386H399.349C399.288 91.803 399.104 92.3068 398.798 92.75C398.491 93.1932 398.08 93.5417 397.565 93.7955C397.053 94.0492 396.453 94.1761 395.763 94.1761ZM404.927 94.1761C404.067 94.1761 403.326 93.9924 402.705 93.625C402.088 93.2538 401.611 92.733 401.273 92.0625C400.94 91.3883 400.773 90.5985 400.773 89.6932C400.773 88.7992 400.94 88.0114 401.273 87.3295C401.611 86.6477 402.08 86.1155 402.683 85.733C403.289 85.3504 403.997 85.1591 404.808 85.1591C405.3 85.1591 405.777 85.2405 406.239 85.4034C406.701 85.5663 407.116 85.822 407.484 86.1705C407.851 86.5189 408.141 86.9716 408.353 87.5284C408.565 88.0814 408.671 88.7538 408.671 89.5455V90.1477H401.734V88.875H407.006C407.006 88.428 406.915 88.0322 406.734 87.6875C406.552 87.339 406.296 87.0644 405.967 86.8636C405.641 86.6629 405.258 86.5625 404.819 86.5625C404.342 86.5625 403.925 86.6799 403.569 86.9148C403.217 87.1458 402.944 87.4489 402.751 87.8239C402.561 88.1951 402.467 88.5985 402.467 89.0341V90.0284C402.467 90.6117 402.569 91.108 402.773 91.517C402.982 91.9261 403.272 92.2386 403.643 92.4545C404.014 92.6667 404.448 92.7727 404.944 92.7727C405.266 92.7727 405.559 92.7273 405.825 92.6364C406.09 92.5417 406.319 92.4015 406.512 92.2159C406.705 92.0303 406.853 91.8011 406.955 91.5284L408.563 91.8182C408.434 92.2917 408.203 92.7064 407.87 93.0625C407.54 93.4148 407.126 93.6894 406.626 93.8864C406.129 94.0795 405.563 94.1761 404.927 94.1761ZM417.096 87.4034L415.556 87.6761C415.492 87.4792 415.389 87.2917 415.249 87.1136C415.113 86.9356 414.927 86.7898 414.692 86.6761C414.458 86.5625 414.164 86.5057 413.812 86.5057C413.331 86.5057 412.929 86.6136 412.607 86.8295C412.285 87.0417 412.124 87.3163 412.124 87.6534C412.124 87.9451 412.232 88.1799 412.448 88.358C412.664 88.536 413.013 88.6818 413.494 88.7955L414.88 89.1136C415.683 89.2992 416.281 89.5852 416.675 89.9716C417.069 90.358 417.266 90.8598 417.266 91.4773C417.266 92 417.115 92.4659 416.812 92.875C416.513 93.2803 416.094 93.5985 415.556 93.8295C415.022 94.0606 414.403 94.1761 413.698 94.1761C412.721 94.1761 411.924 93.9678 411.306 93.5511C410.689 93.1307 410.31 92.5341 410.17 91.7614L411.812 91.5114C411.914 91.9394 412.124 92.2633 412.442 92.483C412.761 92.6989 413.175 92.8068 413.687 92.8068C414.244 92.8068 414.689 92.6913 415.022 92.4602C415.355 92.2254 415.522 91.9394 415.522 91.6023C415.522 91.3295 415.42 91.1004 415.215 90.9148C415.014 90.7292 414.706 90.589 414.289 90.4943L412.812 90.1705C411.997 89.9848 411.395 89.6894 411.005 89.2841C410.619 88.8788 410.425 88.3655 410.425 87.7443C410.425 87.2292 410.569 86.7784 410.857 86.392C411.145 86.0057 411.543 85.7045 412.05 85.4886C412.558 85.2689 413.139 85.1591 413.795 85.1591C414.738 85.1591 415.48 85.3636 416.022 85.7727C416.564 86.178 416.922 86.7216 417.096 87.4034ZM425.674 87.4034L424.134 87.6761C424.07 87.4792 423.968 87.2917 423.827 87.1136C423.691 86.9356 423.505 86.7898 423.271 86.6761C423.036 86.5625 422.742 86.5057 422.39 86.5057C421.909 86.5057 421.507 86.6136 421.185 86.8295C420.863 87.0417 420.702 87.3163 420.702 87.6534C420.702 87.9451 420.81 88.1799 421.026 88.358C421.242 88.536 421.591 88.6818 422.072 88.7955L423.458 89.1136C424.261 89.2992 424.86 89.5852 425.254 89.9716C425.647 90.358 425.844 90.8598 425.844 91.4773C425.844 92 425.693 92.4659 425.39 92.875C425.091 93.2803 424.672 93.5985 424.134 93.8295C423.6 94.0606 422.981 94.1761 422.276 94.1761C421.299 94.1761 420.502 93.9678 419.884 93.5511C419.267 93.1307 418.888 92.5341 418.748 91.7614L420.39 91.5114C420.492 91.9394 420.702 92.2633 421.021 92.483C421.339 92.6989 421.754 92.8068 422.265 92.8068C422.822 92.8068 423.267 92.6913 423.6 92.4602C423.933 92.2254 424.1 91.9394 424.1 91.6023C424.1 91.3295 423.998 91.1004 423.793 90.9148C423.593 90.7292 423.284 90.589 422.867 90.4943L421.39 90.1705C420.576 89.9848 419.973 89.6894 419.583 89.2841C419.197 88.8788 419.004 88.3655 419.004 87.7443C419.004 87.2292 419.147 86.7784 419.435 86.392C419.723 86.0057 420.121 85.7045 420.629 85.4886C421.136 85.2689 421.718 85.1591 422.373 85.1591C423.316 85.1591 424.058 85.3636 424.6 85.7727C425.142 86.178 425.5 86.7216 425.674 87.4034ZM431.866 85.2727V86.6364H426.934V85.2727H431.866ZM428.286 94V84.2614C428.286 83.7159 428.406 83.2633 428.644 82.9034C428.883 82.5398 429.199 82.2689 429.593 82.0909C429.987 81.9091 430.415 81.8182 430.877 81.8182C431.218 81.8182 431.51 81.8466 431.752 81.9034C431.995 81.9564 432.174 82.0057 432.292 82.0511L431.894 83.4261C431.815 83.4034 431.712 83.3769 431.587 83.3466C431.462 83.3125 431.311 83.2955 431.133 83.2955C430.72 83.2955 430.424 83.3977 430.246 83.6023C430.072 83.8068 429.985 84.1023 429.985 84.4886V94H428.286ZM439.147 90.3807V85.2727H440.852V94H439.181V92.4886H439.09C438.889 92.9545 438.567 93.3428 438.124 93.6534C437.685 93.9602 437.138 94.1136 436.482 94.1136C435.922 94.1136 435.425 93.9905 434.994 93.7443C434.566 93.4943 434.228 93.125 433.982 92.6364C433.74 92.1477 433.619 91.5436 433.619 90.8239V85.2727H435.317V90.6193C435.317 91.214 435.482 91.6875 435.812 92.0398C436.141 92.392 436.569 92.5682 437.096 92.5682C437.414 92.5682 437.73 92.4886 438.045 92.3295C438.363 92.1705 438.626 91.9299 438.835 91.608C439.047 91.286 439.151 90.8769 439.147 90.3807ZM444.833 82.3636V94H443.134V82.3636H444.833ZM455.029 94.1761C454.184 94.1761 453.457 93.9848 452.847 93.6023C452.241 93.2159 451.775 92.6837 451.45 92.0057C451.124 91.3277 450.961 90.5511 450.961 89.6761C450.961 88.7898 451.128 88.0076 451.461 87.3295C451.794 86.6477 452.264 86.1155 452.87 85.733C453.476 85.3504 454.19 85.1591 455.012 85.1591C455.675 85.1591 456.266 85.2822 456.785 85.5284C457.304 85.7708 457.722 86.1117 458.04 86.5511C458.362 86.9905 458.554 87.5038 458.614 88.0909H456.961C456.87 87.6818 456.662 87.3295 456.336 87.0341C456.014 86.7386 455.582 86.5909 455.04 86.5909C454.567 86.5909 454.152 86.7159 453.796 86.9659C453.444 87.2121 453.169 87.5644 452.972 88.0227C452.775 88.4773 452.677 89.0152 452.677 89.6364C452.677 90.2727 452.773 90.822 452.967 91.2841C453.16 91.7462 453.433 92.1042 453.785 92.358C454.141 92.6117 454.559 92.7386 455.04 92.7386C455.362 92.7386 455.654 92.6799 455.915 92.5625C456.181 92.4413 456.402 92.2689 456.58 92.0455C456.762 91.822 456.889 91.553 456.961 91.2386H458.614C458.554 91.803 458.37 92.3068 458.063 92.75C457.756 93.1932 457.345 93.5417 456.83 93.7955C456.319 94.0492 455.719 94.1761 455.029 94.1761ZM462.971 94.1932C462.418 94.1932 461.918 94.0909 461.471 93.8864C461.024 93.678 460.67 93.3769 460.408 92.983C460.151 92.589 460.022 92.1061 460.022 91.5341C460.022 91.0417 460.117 90.6364 460.306 90.3182C460.496 90 460.751 89.7481 461.073 89.5625C461.395 89.3769 461.755 89.2367 462.153 89.142C462.55 89.0473 462.956 88.9754 463.369 88.9261C463.891 88.8655 464.316 88.8163 464.641 88.7784C464.967 88.7367 465.204 88.6705 465.352 88.5795C465.499 88.4886 465.573 88.3409 465.573 88.1364V88.0966C465.573 87.6004 465.433 87.2159 465.153 86.9432C464.876 86.6705 464.463 86.5341 463.914 86.5341C463.342 86.5341 462.891 86.661 462.562 86.9148C462.236 87.1648 462.011 87.4432 461.886 87.75L460.289 87.3864C460.478 86.8561 460.755 86.428 461.119 86.1023C461.486 85.7727 461.908 85.5341 462.386 85.3864C462.863 85.2348 463.365 85.1591 463.891 85.1591C464.24 85.1591 464.609 85.2008 464.999 85.2841C465.393 85.3636 465.761 85.5114 466.102 85.7273C466.446 85.9432 466.728 86.2519 466.948 86.6534C467.168 87.0511 467.278 87.5682 467.278 88.2045V94H465.619V92.8068H465.55C465.441 93.0265 465.276 93.2424 465.056 93.4545C464.836 93.6667 464.554 93.8428 464.21 93.983C463.865 94.1231 463.452 94.1932 462.971 94.1932ZM463.34 92.8295C463.81 92.8295 464.211 92.7367 464.545 92.5511C464.882 92.3655 465.138 92.1231 465.312 91.8239C465.49 91.5208 465.579 91.197 465.579 90.8523V89.7273C465.518 89.7879 465.401 89.8447 465.227 89.8977C465.056 89.947 464.861 89.9905 464.641 90.0284C464.422 90.0625 464.208 90.0947 463.999 90.125C463.791 90.1515 463.617 90.1742 463.477 90.1932C463.147 90.2348 462.846 90.3049 462.573 90.4034C462.304 90.5019 462.088 90.6439 461.925 90.8295C461.766 91.0114 461.687 91.2538 461.687 91.5568C461.687 91.9773 461.842 92.2955 462.153 92.5114C462.463 92.7235 462.859 92.8295 463.34 92.8295ZM476.08 87.4034L474.54 87.6761C474.476 87.4792 474.374 87.2917 474.234 87.1136C474.097 86.9356 473.912 86.7898 473.677 86.6761C473.442 86.5625 473.148 86.5057 472.796 86.5057C472.315 86.5057 471.914 86.6136 471.592 86.8295C471.27 87.0417 471.109 87.3163 471.109 87.6534C471.109 87.9451 471.217 88.1799 471.433 88.358C471.648 88.536 471.997 88.6818 472.478 88.7955L473.864 89.1136C474.667 89.2992 475.266 89.5852 475.66 89.9716C476.054 90.358 476.251 90.8598 476.251 91.4773C476.251 92 476.099 92.4659 475.796 92.875C475.497 93.2803 475.078 93.5985 474.54 93.8295C474.006 94.0606 473.387 94.1761 472.683 94.1761C471.705 94.1761 470.908 93.9678 470.29 93.5511C469.673 93.1307 469.294 92.5341 469.154 91.7614L470.796 91.5114C470.898 91.9394 471.109 92.2633 471.427 92.483C471.745 92.6989 472.16 92.8068 472.671 92.8068C473.228 92.8068 473.673 92.6913 474.006 92.4602C474.34 92.2254 474.506 91.9394 474.506 91.6023C474.506 91.3295 474.404 91.1004 474.2 90.9148C473.999 90.7292 473.69 90.589 473.273 90.4943L471.796 90.1705C470.982 89.9848 470.379 89.6894 469.989 89.2841C469.603 88.8788 469.41 88.3655 469.41 87.7443C469.41 87.2292 469.554 86.7784 469.842 86.392C470.129 86.0057 470.527 85.7045 471.035 85.4886C471.542 85.2689 472.124 85.1591 472.779 85.1591C473.722 85.1591 474.465 85.3636 475.006 85.7727C475.548 86.178 475.906 86.7216 476.08 87.4034ZM481.88 94.1761C481.02 94.1761 480.28 93.9924 479.658 93.625C479.041 93.2538 478.564 92.733 478.227 92.0625C477.893 91.3883 477.727 90.5985 477.727 89.6932C477.727 88.7992 477.893 88.0114 478.227 87.3295C478.564 86.6477 479.033 86.1155 479.636 85.733C480.242 85.3504 480.95 85.1591 481.761 85.1591C482.253 85.1591 482.73 85.2405 483.192 85.4034C483.655 85.5663 484.069 85.822 484.437 86.1705C484.804 86.5189 485.094 86.9716 485.306 87.5284C485.518 88.0814 485.624 88.7538 485.624 89.5455V90.1477H478.687V88.875H483.96C483.96 88.428 483.869 88.0322 483.687 87.6875C483.505 87.339 483.249 87.0644 482.92 86.8636C482.594 86.6629 482.211 86.5625 481.772 86.5625C481.295 86.5625 480.878 86.6799 480.522 86.9148C480.17 87.1458 479.897 87.4489 479.704 87.8239C479.514 88.1951 479.42 88.5985 479.42 89.0341V90.0284C479.42 90.6117 479.522 91.108 479.727 91.517C479.935 91.9261 480.225 92.2386 480.596 92.4545C480.967 92.6667 481.401 92.7727 481.897 92.7727C482.219 92.7727 482.513 92.7273 482.778 92.6364C483.043 92.5417 483.272 92.4015 483.465 92.2159C483.658 92.0303 483.806 91.8011 483.908 91.5284L485.516 91.8182C485.388 92.2917 485.156 92.7064 484.823 93.0625C484.494 93.4148 484.079 93.6894 483.579 93.8864C483.083 94.0795 482.516 94.1761 481.88 94.1761ZM494.049 87.4034L492.509 87.6761C492.445 87.4792 492.343 87.2917 492.202 87.1136C492.066 86.9356 491.88 86.7898 491.646 86.6761C491.411 86.5625 491.117 86.5057 490.765 86.5057C490.284 86.5057 489.882 86.6136 489.56 86.8295C489.238 87.0417 489.077 87.3163 489.077 87.6534C489.077 87.9451 489.185 88.1799 489.401 88.358C489.617 88.536 489.966 88.6818 490.447 88.7955L491.833 89.1136C492.636 89.2992 493.235 89.5852 493.629 89.9716C494.022 90.358 494.219 90.8598 494.219 91.4773C494.219 92 494.068 92.4659 493.765 92.875C493.466 93.2803 493.047 93.5985 492.509 93.8295C491.975 94.0606 491.356 94.1761 490.651 94.1761C489.674 94.1761 488.877 93.9678 488.259 93.5511C487.642 93.1307 487.263 92.5341 487.123 91.7614L488.765 91.5114C488.867 91.9394 489.077 92.2633 489.396 92.483C489.714 92.6989 490.129 92.8068 490.64 92.8068C491.197 92.8068 491.642 92.6913 491.975 92.4602C492.308 92.2254 492.475 91.9394 492.475 91.6023C492.475 91.3295 492.373 91.1004 492.168 90.9148C491.968 90.7292 491.659 90.589 491.242 90.4943L489.765 90.1705C488.951 89.9848 488.348 89.6894 487.958 89.2841C487.572 88.8788 487.379 88.3655 487.379 87.7443C487.379 87.2292 487.522 86.7784 487.81 86.392C488.098 86.0057 488.496 85.7045 489.004 85.4886C489.511 85.2689 490.093 85.1591 490.748 85.1591C491.691 85.1591 492.433 85.3636 492.975 85.7727C493.517 86.178 493.875 86.7216 494.049 87.4034Z" fill="#5A5A5A"/>
<path d="M539 0V137L621 0H539Z" fill="#EEEEEE"/>
<path d="M621 137V0L539 137H621Z" fill="#DCDCDC"/>
<rect width="217" height="137" transform="translate(621)" fill="url(#paint2_linear_1_326)"/>
<path d="M700.7 49.9V52.3H702.125V49.9H700.7ZM697.425 56.675C696.15 56.675 695.25 55.775 695.25 54.475V47.675C695.25 46.4 696.15 45.5 697.425 45.5H705.4C706.7 45.5 707.6 46.4 707.6 47.675V60.825C707.6 62.1 706.7 63 705.4 63H695.875V58.65H702.125V56.675H697.425ZM709.611 45.5H721.861V47.675L721.011 49.9H715.086V51.875H719.786C721.061 51.875 721.961 52.775 721.961 54.05V60.825C721.961 62.1 721.061 63 719.786 63H709.611V58.65H716.511V56.225H709.611V45.5ZM727.223 51.1H728.423V48H727.223V51.1ZM724.298 45.3H731.348V53.8H724.298V45.3ZM738.098 60.3H739.323V57.15H738.098V60.3ZM735.173 63V54.45H742.223V63H735.173ZM728.423 63L735.848 45.3H738.098L730.648 63H728.423Z" fill="#151515"/>
<path d="M670.076 94.1761C669.258 94.1761 668.544 93.9886 667.934 93.6136C667.324 93.2386 666.851 92.714 666.513 92.0398C666.176 91.3655 666.008 90.5777 666.008 89.6761C666.008 88.7708 666.176 87.9792 666.513 87.3011C666.851 86.6231 667.324 86.0966 667.934 85.7216C668.544 85.3466 669.258 85.1591 670.076 85.1591C670.894 85.1591 671.608 85.3466 672.218 85.7216C672.828 86.0966 673.301 86.6231 673.638 87.3011C673.976 87.9792 674.144 88.7708 674.144 89.6761C674.144 90.5777 673.976 91.3655 673.638 92.0398C673.301 92.714 672.828 93.2386 672.218 93.6136C671.608 93.9886 670.894 94.1761 670.076 94.1761ZM670.082 92.75C670.612 92.75 671.051 92.6098 671.4 92.3295C671.748 92.0492 672.006 91.6761 672.173 91.2102C672.343 90.7443 672.428 90.2311 672.428 89.6705C672.428 89.1136 672.343 88.6023 672.173 88.1364C672.006 87.6667 671.748 87.2898 671.4 87.0057C671.051 86.7216 670.612 86.5795 670.082 86.5795C669.548 86.5795 669.104 86.7216 668.752 87.0057C668.404 87.2898 668.144 87.6667 667.974 88.1364C667.807 88.6023 667.724 89.1136 667.724 89.6705C667.724 90.2311 667.807 90.7443 667.974 91.2102C668.144 91.6761 668.404 92.0492 668.752 92.3295C669.104 92.6098 669.548 92.75 670.082 92.75ZM680.194 85.2727V86.6364H675.262V85.2727H680.194ZM676.614 94V84.2614C676.614 83.7159 676.734 83.2633 676.972 82.9034C677.211 82.5398 677.527 82.2689 677.921 82.0909C678.315 81.9091 678.743 81.8182 679.205 81.8182C679.546 81.8182 679.838 81.8466 680.08 81.9034C680.323 81.9564 680.503 82.0057 680.62 82.0511L680.222 83.4261C680.143 83.4034 680.04 83.3769 679.915 83.3466C679.79 83.3125 679.639 83.2955 679.461 83.2955C679.048 83.2955 678.753 83.3977 678.575 83.6023C678.4 83.8068 678.313 84.1023 678.313 84.4886V94H676.614ZM688.073 94L685.505 85.2727H687.261L688.971 91.6818H689.056L690.772 85.2727H692.528L694.232 91.6534H694.317L696.016 85.2727H697.772L695.21 94H693.477L691.704 87.6989H691.573L689.8 94H688.073ZM699.384 94V85.2727H701.083V94H699.384ZM700.242 83.9261C699.947 83.9261 699.693 83.8277 699.481 83.6307C699.272 83.4299 699.168 83.1913 699.168 82.9148C699.168 82.6345 699.272 82.3958 699.481 82.1989C699.693 81.9981 699.947 81.8977 700.242 81.8977C700.538 81.8977 700.79 81.9981 700.998 82.1989C701.21 82.3958 701.316 82.6345 701.316 82.9148C701.316 83.1913 701.21 83.4299 700.998 83.6307C700.79 83.8277 700.538 83.9261 700.242 83.9261ZM705.067 88.8182V94H703.369V85.2727H704.999V86.6932H705.107C705.308 86.2311 705.622 85.8598 706.05 85.5795C706.482 85.2992 707.026 85.1591 707.681 85.1591C708.276 85.1591 708.797 85.2841 709.244 85.5341C709.691 85.7803 710.037 86.1477 710.283 86.6364C710.53 87.125 710.653 87.7292 710.653 88.4489V94H708.954V88.6534C708.954 88.0208 708.789 87.5265 708.46 87.1705C708.13 86.8106 707.677 86.6307 707.102 86.6307C706.708 86.6307 706.357 86.7159 706.05 86.8864C705.747 87.0568 705.507 87.3068 705.329 87.6364C705.155 87.9621 705.067 88.3561 705.067 88.8182ZM714.63 88.8182V94H712.931V85.2727H714.562V86.6932H714.67C714.871 86.2311 715.185 85.8598 715.613 85.5795C716.045 85.2992 716.588 85.1591 717.244 85.1591C717.838 85.1591 718.359 85.2841 718.806 85.5341C719.253 85.7803 719.6 86.1477 719.846 86.6364C720.092 87.125 720.215 87.7292 720.215 88.4489V94H718.516V88.6534C718.516 88.0208 718.352 87.5265 718.022 87.1705C717.692 86.8106 717.24 86.6307 716.664 86.6307C716.27 86.6307 715.92 86.7159 715.613 86.8864C715.31 87.0568 715.069 87.3068 714.891 87.6364C714.717 87.9621 714.63 88.3561 714.63 88.8182ZM722.494 94V85.2727H724.192V94H722.494ZM723.352 83.9261C723.056 83.9261 722.802 83.8277 722.59 83.6307C722.382 83.4299 722.278 83.1913 722.278 82.9148C722.278 82.6345 722.382 82.3958 722.59 82.1989C722.802 81.9981 723.056 81.8977 723.352 81.8977C723.647 81.8977 723.899 81.9981 724.107 82.1989C724.319 82.3958 724.425 82.6345 724.425 82.9148C724.425 83.1913 724.319 83.4299 724.107 83.6307C723.899 83.8277 723.647 83.9261 723.352 83.9261ZM728.177 88.8182V94H726.478V85.2727H728.109V86.6932H728.217C728.417 86.2311 728.732 85.8598 729.16 85.5795C729.592 85.2992 730.135 85.1591 730.79 85.1591C731.385 85.1591 731.906 85.2841 732.353 85.5341C732.8 85.7803 733.147 86.1477 733.393 86.6364C733.639 87.125 733.762 87.7292 733.762 88.4489V94H732.063V88.6534C732.063 88.0208 731.898 87.5265 731.569 87.1705C731.239 86.8106 730.787 86.6307 730.211 86.6307C729.817 86.6307 729.467 86.7159 729.16 86.8864C728.857 87.0568 728.616 87.3068 728.438 87.6364C728.264 87.9621 728.177 88.3561 728.177 88.8182ZM739.7 97.4545C739.006 97.4545 738.41 97.3636 737.91 97.1818C737.414 97 737.008 96.7595 736.694 96.4602C736.379 96.161 736.145 95.8333 735.989 95.4773L737.45 94.875C737.552 95.0417 737.688 95.2178 737.859 95.4034C738.033 95.5928 738.268 95.7538 738.563 95.8864C738.862 96.0189 739.247 96.0852 739.717 96.0852C740.361 96.0852 740.893 95.928 741.313 95.6136C741.734 95.303 741.944 94.8068 741.944 94.125V92.4091H741.836C741.734 92.5947 741.586 92.8011 741.393 93.0284C741.203 93.2557 740.942 93.4527 740.609 93.6193C740.275 93.786 739.842 93.8693 739.308 93.8693C738.618 93.8693 737.997 93.7083 737.444 93.3864C736.895 93.0606 736.459 92.5814 736.137 91.9489C735.819 91.3125 735.66 90.5303 735.66 89.6023C735.66 88.6742 735.817 87.8788 736.131 87.2159C736.45 86.553 736.885 86.0455 737.438 85.6932C737.991 85.3371 738.618 85.1591 739.319 85.1591C739.861 85.1591 740.298 85.25 740.631 85.4318C740.965 85.6098 741.224 85.8182 741.41 86.0568C741.599 86.2955 741.745 86.5057 741.847 86.6875H741.972V85.2727H743.637V94.1932C743.637 94.9432 743.463 95.5587 743.114 96.0398C742.766 96.5208 742.294 96.8769 741.7 97.108C741.109 97.339 740.442 97.4545 739.7 97.4545ZM739.683 92.4602C740.171 92.4602 740.584 92.3466 740.921 92.1193C741.262 91.8883 741.52 91.5587 741.694 91.1307C741.872 90.6989 741.961 90.1818 741.961 89.5795C741.961 88.9924 741.874 88.4754 741.7 88.0284C741.525 87.5814 741.27 87.233 740.933 86.983C740.595 86.7292 740.179 86.6023 739.683 86.6023C739.171 86.6023 738.745 86.7348 738.404 87C738.063 87.2614 737.806 87.6174 737.631 88.0682C737.461 88.5189 737.376 89.0227 737.376 89.5795C737.376 90.1515 737.463 90.6534 737.637 91.0852C737.811 91.517 738.069 91.8542 738.41 92.0966C738.754 92.339 739.179 92.4602 739.683 92.4602ZM753.826 94.1761C752.981 94.1761 752.254 93.9848 751.644 93.6023C751.038 93.2159 750.572 92.6837 750.246 92.0057C749.921 91.3277 749.758 90.5511 749.758 89.6761C749.758 88.7898 749.924 88.0076 750.258 87.3295C750.591 86.6477 751.061 86.1155 751.667 85.733C752.273 85.3504 752.987 85.1591 753.809 85.1591C754.472 85.1591 755.063 85.2822 755.582 85.5284C756.101 85.7708 756.519 86.1117 756.837 86.5511C757.159 86.9905 757.351 87.5038 757.411 88.0909H755.758C755.667 87.6818 755.459 87.3295 755.133 87.0341C754.811 86.7386 754.379 86.5909 753.837 86.5909C753.364 86.5909 752.949 86.7159 752.593 86.9659C752.241 87.2121 751.966 87.5644 751.769 88.0227C751.572 88.4773 751.474 89.0152 751.474 89.6364C751.474 90.2727 751.57 90.822 751.763 91.2841C751.957 91.7462 752.229 92.1042 752.582 92.358C752.938 92.6117 753.356 92.7386 753.837 92.7386C754.159 92.7386 754.451 92.6799 754.712 92.5625C754.978 92.4413 755.199 92.2689 755.377 92.0455C755.559 91.822 755.686 91.553 755.758 91.2386H757.411C757.351 91.803 757.167 92.3068 756.86 92.75C756.553 93.1932 756.142 93.5417 755.627 93.7955C755.116 94.0492 754.515 94.1761 753.826 94.1761ZM761.768 94.1932C761.215 94.1932 760.715 94.0909 760.268 93.8864C759.821 93.678 759.467 93.3769 759.205 92.983C758.948 92.589 758.819 92.1061 758.819 91.5341C758.819 91.0417 758.914 90.6364 759.103 90.3182C759.292 90 759.548 89.7481 759.87 89.5625C760.192 89.3769 760.552 89.2367 760.95 89.142C761.347 89.0473 761.753 88.9754 762.165 88.9261C762.688 88.8655 763.112 88.8163 763.438 88.7784C763.764 88.7367 764.001 88.6705 764.148 88.5795C764.296 88.4886 764.37 88.3409 764.37 88.1364V88.0966C764.37 87.6004 764.23 87.2159 763.95 86.9432C763.673 86.6705 763.26 86.5341 762.711 86.5341C762.139 86.5341 761.688 86.661 761.359 86.9148C761.033 87.1648 760.808 87.4432 760.683 87.75L759.086 87.3864C759.275 86.8561 759.552 86.428 759.915 86.1023C760.283 85.7727 760.705 85.5341 761.183 85.3864C761.66 85.2348 762.162 85.1591 762.688 85.1591C763.037 85.1591 763.406 85.2008 763.796 85.2841C764.19 85.3636 764.558 85.5114 764.898 85.7273C765.243 85.9432 765.525 86.2519 765.745 86.6534C765.965 87.0511 766.075 87.5682 766.075 88.2045V94H764.415V92.8068H764.347C764.237 93.0265 764.073 93.2424 763.853 93.4545C763.633 93.6667 763.351 93.8428 763.006 93.983C762.662 94.1231 762.249 94.1932 761.768 94.1932ZM762.137 92.8295C762.607 92.8295 763.008 92.7367 763.342 92.5511C763.679 92.3655 763.934 92.1231 764.109 91.8239C764.287 91.5208 764.376 91.197 764.376 90.8523V89.7273C764.315 89.7879 764.198 89.8447 764.023 89.8977C763.853 89.947 763.658 89.9905 763.438 90.0284C763.219 90.0625 763.004 90.0947 762.796 90.125C762.588 90.1515 762.414 90.1742 762.273 90.1932C761.944 90.2348 761.643 90.3049 761.37 90.4034C761.101 90.5019 760.885 90.6439 760.722 90.8295C760.563 91.0114 760.484 91.2538 760.484 91.5568C760.484 91.9773 760.639 92.2955 760.95 92.5114C761.26 92.7235 761.656 92.8295 762.137 92.8295ZM774.877 87.4034L773.337 87.6761C773.273 87.4792 773.171 87.2917 773.031 87.1136C772.894 86.9356 772.709 86.7898 772.474 86.6761C772.239 86.5625 771.945 86.5057 771.593 86.5057C771.112 86.5057 770.71 86.6136 770.388 86.8295C770.067 87.0417 769.906 87.3163 769.906 87.6534C769.906 87.9451 770.013 88.1799 770.229 88.358C770.445 88.536 770.794 88.6818 771.275 88.7955L772.661 89.1136C773.464 89.2992 774.063 89.5852 774.457 89.9716C774.851 90.358 775.048 90.8598 775.048 91.4773C775.048 92 774.896 92.4659 774.593 92.875C774.294 93.2803 773.875 93.5985 773.337 93.8295C772.803 94.0606 772.184 94.1761 771.479 94.1761C770.502 94.1761 769.705 93.9678 769.087 93.5511C768.47 93.1307 768.091 92.5341 767.951 91.7614L769.593 91.5114C769.695 91.9394 769.906 92.2633 770.224 92.483C770.542 92.6989 770.957 92.8068 771.468 92.8068C772.025 92.8068 772.47 92.6913 772.803 92.4602C773.137 92.2254 773.303 91.9394 773.303 91.6023C773.303 91.3295 773.201 91.1004 772.996 90.9148C772.796 90.7292 772.487 90.589 772.07 90.4943L770.593 90.1705C769.779 89.9848 769.176 89.6894 768.786 89.2841C768.4 88.8788 768.207 88.3655 768.207 87.7443C768.207 87.2292 768.351 86.7784 768.638 86.392C768.926 86.0057 769.324 85.7045 769.832 85.4886C770.339 85.2689 770.921 85.1591 771.576 85.1591C772.519 85.1591 773.262 85.3636 773.803 85.7727C774.345 86.178 774.703 86.7216 774.877 87.4034ZM780.677 94.1761C779.817 94.1761 779.076 93.9924 778.455 93.625C777.838 93.2538 777.361 92.733 777.023 92.0625C776.69 91.3883 776.523 90.5985 776.523 89.6932C776.523 88.7992 776.69 88.0114 777.023 87.3295C777.361 86.6477 777.83 86.1155 778.433 85.733C779.039 85.3504 779.747 85.1591 780.558 85.1591C781.05 85.1591 781.527 85.2405 781.989 85.4034C782.451 85.5663 782.866 85.822 783.234 86.1705C783.601 86.5189 783.891 86.9716 784.103 87.5284C784.315 88.0814 784.421 88.7538 784.421 89.5455V90.1477H777.484V88.875H782.756C782.756 88.428 782.665 88.0322 782.484 87.6875C782.302 87.339 782.046 87.0644 781.717 86.8636C781.391 86.6629 781.008 86.5625 780.569 86.5625C780.092 86.5625 779.675 86.6799 779.319 86.9148C778.967 87.1458 778.694 87.4489 778.501 87.8239C778.311 88.1951 778.217 88.5985 778.217 89.0341V90.0284C778.217 90.6117 778.319 91.108 778.523 91.517C778.732 91.9261 779.022 92.2386 779.393 92.4545C779.764 92.6667 780.198 92.7727 780.694 92.7727C781.016 92.7727 781.309 92.7273 781.575 92.6364C781.84 92.5417 782.069 92.4015 782.262 92.2159C782.455 92.0303 782.603 91.8011 782.705 91.5284L784.313 91.8182C784.184 92.2917 783.953 92.7064 783.62 93.0625C783.29 93.4148 782.876 93.6894 782.376 93.8864C781.879 94.0795 781.313 94.1761 780.677 94.1761ZM792.846 87.4034L791.306 87.6761C791.242 87.4792 791.139 87.2917 790.999 87.1136C790.863 86.9356 790.677 86.7898 790.442 86.6761C790.208 86.5625 789.914 86.5057 789.562 86.5057C789.081 86.5057 788.679 86.6136 788.357 86.8295C788.035 87.0417 787.874 87.3163 787.874 87.6534C787.874 87.9451 787.982 88.1799 788.198 88.358C788.414 88.536 788.763 88.6818 789.244 88.7955L790.63 89.1136C791.433 89.2992 792.031 89.5852 792.425 89.9716C792.819 90.358 793.016 90.8598 793.016 91.4773C793.016 92 792.865 92.4659 792.562 92.875C792.263 93.2803 791.844 93.5985 791.306 93.8295C790.772 94.0606 790.153 94.1761 789.448 94.1761C788.471 94.1761 787.674 93.9678 787.056 93.5511C786.439 93.1307 786.06 92.5341 785.92 91.7614L787.562 91.5114C787.664 91.9394 787.874 92.2633 788.192 92.483C788.511 92.6989 788.925 92.8068 789.437 92.8068C789.994 92.8068 790.439 92.6913 790.772 92.4602C791.105 92.2254 791.272 91.9394 791.272 91.6023C791.272 91.3295 791.17 91.1004 790.965 90.9148C790.764 90.7292 790.456 90.589 790.039 90.4943L788.562 90.1705C787.747 89.9848 787.145 89.6894 786.755 89.2841C786.369 88.8788 786.175 88.3655 786.175 87.7443C786.175 87.2292 786.319 86.7784 786.607 86.392C786.895 86.0057 787.293 85.7045 787.8 85.4886C788.308 85.2689 788.889 85.1591 789.545 85.1591C790.488 85.1591 791.23 85.3636 791.772 85.7727C792.314 86.178 792.672 86.7216 792.846 87.4034Z" fill="#5A5A5A"/>
<path d="M838 0V137L920 0H838Z" fill="#EEEEEE"/>
<defs>
<linearGradient id="paint0_linear_1_326" x1="-240.541" y1="66.5087" x2="148.65" y2="66.5087" gradientUnits="userSpaceOnUse">
<stop stop-color="#C6C6C6"/>
<stop offset="0.52" stop-color="#D7D7D7"/>
<stop offset="1" stop-color="#EEEEEE"/>
</linearGradient>
<linearGradient id="paint1_linear_1_326" x1="-225.252" y1="66.5087" x2="139.202" y2="66.5087" gradientUnits="userSpaceOnUse">
<stop stop-color="#C6C6C6"/>
<stop offset="0.52" stop-color="#D7D7D7"/>
<stop offset="1" stop-color="#EEEEEE"/>
</linearGradient>
<linearGradient id="paint2_linear_1_326" x1="-221.175" y1="66.5087" x2="136.682" y2="66.5087" gradientUnits="userSpaceOnUse">
<stop stop-color="#C6C6C6"/>
<stop offset="0.52" stop-color="#D7D7D7"/>
<stop offset="1" stop-color="#EEEEEE"/>
</linearGradient>
</defs>
</svg>
