<svg width="181" height="19" viewBox="0 0 181 19" fill="none" xmlns="http://www.w3.org/2000/svg">
<path d="M4.52557 14.7841V4.72727H7.06818V14.7841H4.52557ZM0.768466 11.027V8.48438H10.8253V11.027H0.768466ZM20.1009 2.45455V17H17.0256V5.37358H16.9403L13.6094 7.46165V4.73438L17.2102 2.45455H20.1009ZM28.8828 9.72727C28.8828 7.96591 29.1172 6.34422 29.5859 4.86222C30.0594 3.38021 30.7815 2.0071 31.7521 0.742898H34.6428C34.2734 1.21165 33.9302 1.78456 33.6129 2.46165C33.2957 3.134 33.0187 3.87263 32.782 4.67756C32.5452 5.48248 32.3606 6.31581 32.228 7.17756C32.0954 8.03456 32.0291 8.88447 32.0291 9.72727C32.0291 10.8494 32.1428 11.9834 32.37 13.1293C32.602 14.2704 32.9145 15.331 33.3075 16.3111C33.7053 17.2912 34.1503 18.0938 34.6428 18.7188H31.7521C30.7815 17.4545 30.0594 16.0814 29.5859 14.5994C29.1172 13.1174 28.8828 11.4934 28.8828 9.72727ZM41.9528 17.1989C41.2047 17.1941 40.4826 17.0687 39.7866 16.8224C39.0953 16.5762 38.475 16.1761 37.9258 15.6222C37.3765 15.0682 36.9409 14.3343 36.619 13.4205C36.3017 12.5066 36.1431 11.3845 36.1431 10.054C36.1478 8.83239 36.2875 7.741 36.5621 6.77983C36.8415 5.81392 37.2392 4.99479 37.7553 4.32244C38.2762 3.65009 38.8988 3.13873 39.6232 2.78835C40.3477 2.43324 41.1597 2.25568 42.0593 2.25568C43.0299 2.25568 43.887 2.44508 44.6303 2.82386C45.3737 3.19792 45.9703 3.70691 46.4201 4.35085C46.8746 4.99479 47.1493 5.71686 47.244 6.51705H44.2113C44.0929 6.01042 43.8443 5.61269 43.4656 5.32386C43.0868 5.03504 42.618 4.89062 42.0593 4.89062C41.1123 4.89062 40.3926 5.30256 39.9002 6.12642C39.4125 6.95028 39.1639 8.07008 39.1545 9.4858H39.2539C39.4717 9.05492 39.7653 8.68797 40.1346 8.38494C40.5086 8.07718 40.9324 7.8428 41.4059 7.68182C41.8841 7.5161 42.3884 7.43324 42.9187 7.43324C43.7804 7.43324 44.5475 7.63684 45.2198 8.04403C45.8922 8.4465 46.4225 9.00047 46.8107 9.70597C47.199 10.4115 47.3931 11.2187 47.3931 12.1278C47.3931 13.1127 47.1635 13.9886 46.7042 14.7557C46.2496 15.5227 45.6128 16.1241 44.7937 16.5597C43.9793 16.9905 43.0323 17.2036 41.9528 17.1989ZM41.9386 14.7841C42.4121 14.7841 42.8358 14.6705 43.2099 14.4432C43.5839 14.2159 43.8775 13.9081 44.0906 13.5199C44.3036 13.1316 44.4102 12.696 44.4102 12.2131C44.4102 11.7301 44.3036 11.2969 44.0906 10.9134C43.8822 10.5298 43.5934 10.2244 43.2241 9.99716C42.8548 9.76989 42.4334 9.65625 41.9599 9.65625C41.6048 9.65625 41.2757 9.72254 40.9727 9.85511C40.6744 9.98769 40.4116 10.1723 40.1843 10.4091C39.9618 10.6458 39.7866 10.9205 39.6587 11.233C39.5309 11.5407 39.467 11.8698 39.467 12.2202C39.467 12.6889 39.5735 13.1174 39.7866 13.5057C40.0044 13.8939 40.2979 14.2041 40.6673 14.4361C41.0413 14.6681 41.4651 14.7841 41.9386 14.7841ZM49.5735 17V14.7841L54.7511 9.99006C55.1914 9.56392 55.5607 9.1804 55.859 8.83949C56.1621 8.49858 56.3917 8.16477 56.5479 7.83807C56.7042 7.50663 56.7823 7.14915 56.7823 6.76562C56.7823 6.33949 56.6853 5.97254 56.4911 5.66477C56.297 5.35227 56.0318 5.11316 55.6957 4.94744C55.3595 4.77699 54.9783 4.69176 54.5522 4.69176C54.1071 4.69176 53.7189 4.78172 53.3874 4.96165C53.056 5.14157 52.8003 5.39962 52.6204 5.7358C52.4405 6.07197 52.3505 6.47206 52.3505 6.93608H49.4315C49.4315 5.98437 49.6469 5.15814 50.0778 4.45739C50.5086 3.75663 51.1123 3.21449 51.8888 2.83097C52.6654 2.44744 53.5603 2.25568 54.5735 2.25568C55.6152 2.25568 56.5219 2.44034 57.2937 2.80966C58.0702 3.17424 58.6739 3.68087 59.1048 4.32955C59.5356 4.97822 59.7511 5.72159 59.7511 6.55966C59.7511 7.1089 59.6422 7.65104 59.4244 8.18608C59.2113 8.72112 58.8301 9.31534 58.2809 9.96875C57.7317 10.6174 56.9575 11.3963 55.9585 12.3054L53.8349 14.3864V14.4858H59.9428V17H49.5735ZM67.7536 17.1989C67.0054 17.1941 66.2834 17.0687 65.5874 16.8224C64.8961 16.5762 64.2758 16.1761 63.7266 15.6222C63.1773 15.0682 62.7417 14.3343 62.4197 13.4205C62.1025 12.5066 61.9439 11.3845 61.9439 10.054C61.9486 8.83239 62.0883 7.741 62.3629 6.77983C62.6423 5.81392 63.04 4.99479 63.5561 4.32244C64.0769 3.65009 64.6996 3.13873 65.424 2.78835C66.1484 2.43324 66.9605 2.25568 67.8601 2.25568C68.8307 2.25568 69.6877 2.44508 70.4311 2.82386C71.1745 3.19792 71.7711 3.70691 72.2209 4.35085C72.6754 4.99479 72.95 5.71686 73.0447 6.51705H70.0121C69.8937 6.01042 69.6451 5.61269 69.2663 5.32386C68.8875 5.03504 68.4188 4.89062 67.8601 4.89062C66.9131 4.89062 66.1934 5.30256 65.701 6.12642C65.2133 6.95028 64.9647 8.07008 64.9553 9.4858H65.0547C65.2725 9.05492 65.5661 8.68797 65.9354 8.38494C66.3094 8.07718 66.7332 7.8428 67.2067 7.68182C67.6849 7.5161 68.1892 7.43324 68.7195 7.43324C69.5812 7.43324 70.3482 7.63684 71.0206 8.04403C71.6929 8.4465 72.2232 9.00047 72.6115 9.70597C72.9998 10.4115 73.1939 11.2187 73.1939 12.1278C73.1939 13.1127 72.9643 13.9886 72.505 14.7557C72.0504 15.5227 71.4136 16.1241 70.5945 16.5597C69.7801 16.9905 68.8331 17.2036 67.7536 17.1989ZM67.7393 14.7841C68.2128 14.7841 68.6366 14.6705 69.0107 14.4432C69.3847 14.2159 69.6783 13.9081 69.8913 13.5199C70.1044 13.1316 70.2109 12.696 70.2109 12.2131C70.2109 11.7301 70.1044 11.2969 69.8913 10.9134C69.683 10.5298 69.3942 10.2244 69.0249 9.99716C68.6555 9.76989 68.2341 9.65625 67.7607 9.65625C67.4055 9.65625 67.0765 9.72254 66.7734 9.85511C66.4751 9.98769 66.2124 10.1723 65.9851 10.4091C65.7625 10.6458 65.5874 10.9205 65.4595 11.233C65.3317 11.5407 65.2678 11.8698 65.2678 12.2202C65.2678 12.6889 65.3743 13.1174 65.5874 13.5057C65.8052 13.8939 66.0987 14.2041 66.468 14.4361C66.8421 14.6681 67.2659 14.7841 67.7393 14.7841ZM80.5021 9.72727C80.5021 11.4934 80.2654 13.1174 79.7919 14.5994C79.3232 16.0814 78.6035 17.4545 77.6328 18.7188H74.7422C75.1115 18.25 75.4548 17.6771 75.772 17C76.0893 16.3229 76.3662 15.5843 76.603 14.7841C76.8397 13.9792 77.0244 13.1458 77.157 12.2841C77.2895 11.4223 77.3558 10.5701 77.3558 9.72727C77.3558 8.60511 77.2398 7.47348 77.0078 6.33239C76.7805 5.18655 76.468 4.12595 76.0703 3.15057C75.6773 2.17045 75.2346 1.3679 74.7422 0.742898H77.6328C78.6035 2.0071 79.3232 3.38021 79.7919 4.86222C80.2654 6.34422 80.5021 7.96591 80.5021 9.72727ZM93.6129 17.1989C92.5192 17.1989 91.5462 17.0213 90.6939 16.6662C89.8464 16.3063 89.1811 15.8163 88.6982 15.196C88.2152 14.5758 87.9737 13.8726 87.9737 13.0866C87.9737 12.4806 88.111 11.9242 88.3857 11.4176C88.665 10.9062 89.0438 10.4825 89.522 10.1463C90.0002 9.8054 90.5353 9.58759 91.1271 9.4929V9.39347C90.3506 9.23722 89.7209 8.8608 89.2379 8.2642C88.755 7.66288 88.5135 6.96449 88.5135 6.16903C88.5135 5.41619 88.7337 4.74621 89.174 4.15909C89.6143 3.56723 90.218 3.10322 90.9851 2.76705C91.7569 2.42614 92.6328 2.25568 93.6129 2.25568C94.593 2.25568 95.4666 2.42614 96.2337 2.76705C97.0054 3.10795 97.6115 3.57434 98.0518 4.16619C98.4922 4.75331 98.7147 5.42093 98.7195 6.16903C98.7147 6.96922 98.4685 7.66761 97.9808 8.2642C97.4931 8.8608 96.8681 9.23722 96.1058 9.39347V9.4929C96.6882 9.58759 97.2161 9.8054 97.6896 10.1463C98.1679 10.4825 98.5466 10.9062 98.826 11.4176C99.1101 11.9242 99.2545 12.4806 99.2592 13.0866C99.2545 13.8726 99.0107 14.5758 98.5277 15.196C98.0447 15.8163 97.3771 16.3063 96.5249 16.6662C95.6773 17.0213 94.7067 17.1989 93.6129 17.1989ZM93.6129 14.9403C94.1006 14.9403 94.5268 14.8527 94.8913 14.6776C95.2559 14.4976 95.54 14.2514 95.7436 13.9389C95.9519 13.6217 96.0561 13.2571 96.0561 12.8452C96.0561 12.4238 95.9496 12.0521 95.7365 11.7301C95.5234 11.4034 95.2346 11.1477 94.87 10.9631C94.5054 10.7737 94.0864 10.679 93.6129 10.679C93.1442 10.679 92.7251 10.7737 92.3558 10.9631C91.9865 11.1477 91.6953 11.4034 91.4822 11.7301C91.2739 12.0521 91.1697 12.4238 91.1697 12.8452C91.1697 13.2571 91.2715 13.6217 91.4751 13.9389C91.6787 14.2514 91.9652 14.4976 92.3345 14.6776C92.7038 14.8527 93.13 14.9403 93.6129 14.9403ZM93.6129 8.44176C94.0201 8.44176 94.3823 8.3589 94.6996 8.19318C95.0168 8.02746 95.2654 7.79782 95.4453 7.50426C95.6252 7.2107 95.7152 6.87216 95.7152 6.48864C95.7152 6.10985 95.6252 5.77841 95.4453 5.49432C95.2654 5.20549 95.0192 4.98059 94.7067 4.8196C94.3942 4.65388 94.0296 4.57102 93.6129 4.57102C93.201 4.57102 92.8364 4.65388 92.5192 4.8196C92.2019 4.98059 91.9534 5.20549 91.7734 5.49432C91.5982 5.77841 91.5107 6.10985 91.5107 6.48864C91.5107 6.87216 91.6006 7.2107 91.7805 7.50426C91.9605 7.79782 92.209 8.02746 92.5263 8.19318C92.8435 8.3589 93.2057 8.44176 93.6129 8.44176ZM101.409 17V14.7841L106.587 9.99006C107.027 9.56392 107.397 9.1804 107.695 8.83949C107.998 8.49858 108.228 8.16477 108.384 7.83807C108.54 7.50663 108.618 7.14915 108.618 6.76562C108.618 6.33949 108.521 5.97254 108.327 5.66477C108.133 5.35227 107.868 5.11316 107.532 4.94744C107.195 4.77699 106.814 4.69176 106.388 4.69176C105.943 4.69176 105.555 4.78172 105.223 4.96165C104.892 5.14157 104.636 5.39962 104.456 5.7358C104.276 6.07197 104.186 6.47206 104.186 6.93608H101.267C101.267 5.98437 101.483 5.15814 101.914 4.45739C102.345 3.75663 102.948 3.21449 103.725 2.83097C104.501 2.44744 105.396 2.25568 106.409 2.25568C107.451 2.25568 108.358 2.44034 109.13 2.80966C109.906 3.17424 110.51 3.68087 110.941 4.32955C111.372 4.97822 111.587 5.72159 111.587 6.55966C111.587 7.1089 111.478 7.65104 111.26 8.18608C111.047 8.72112 110.666 9.31534 110.117 9.96875C109.568 10.6174 108.793 11.3963 107.794 12.3054L105.671 14.3864V14.4858H111.779V17H101.409ZM114.007 17V14.7841L119.185 9.99006C119.625 9.56392 119.994 9.1804 120.293 8.83949C120.596 8.49858 120.825 8.16477 120.982 7.83807C121.138 7.50663 121.216 7.14915 121.216 6.76562C121.216 6.33949 121.119 5.97254 120.925 5.66477C120.731 5.35227 120.465 5.11316 120.129 4.94744C119.793 4.77699 119.412 4.69176 118.986 4.69176C118.541 4.69176 118.152 4.78172 117.821 4.96165C117.49 5.14157 117.234 5.39962 117.054 5.7358C116.874 6.07197 116.784 6.47206 116.784 6.93608H113.865C113.865 5.98437 114.08 5.15814 114.511 4.45739C114.942 3.75663 115.546 3.21449 116.322 2.83097C117.099 2.44744 117.994 2.25568 119.007 2.25568C120.049 2.25568 120.955 2.44034 121.727 2.80966C122.504 3.17424 123.107 3.68087 123.538 4.32955C123.969 4.97822 124.185 5.72159 124.185 6.55966C124.185 7.1089 124.076 7.65104 123.858 8.18608C123.645 8.72112 123.264 9.31534 122.714 9.96875C122.165 10.6174 121.391 11.3963 120.392 12.3054L118.268 14.3864V14.4858H124.376V17H114.007ZM136.816 17.1989C136.068 17.1941 135.346 17.0687 134.65 16.8224C133.959 16.5762 133.338 16.1761 132.789 15.6222C132.24 15.0682 131.804 14.3343 131.482 13.4205C131.165 12.5066 131.006 11.3845 131.006 10.054C131.011 8.83239 131.151 7.741 131.425 6.77983C131.705 5.81392 132.103 4.99479 132.619 4.32244C133.139 3.65009 133.762 3.13873 134.487 2.78835C135.211 2.43324 136.023 2.25568 136.923 2.25568C137.893 2.25568 138.75 2.44508 139.494 2.82386C140.237 3.19792 140.834 3.70691 141.283 4.35085C141.738 4.99479 142.013 5.71686 142.107 6.51705H139.075C138.956 6.01042 138.708 5.61269 138.329 5.32386C137.95 5.03504 137.481 4.89062 136.923 4.89062C135.976 4.89062 135.256 5.30256 134.763 6.12642C134.276 6.95028 134.027 8.07008 134.018 9.4858H134.117C134.335 9.05492 134.629 8.68797 134.998 8.38494C135.372 8.07718 135.796 7.8428 136.269 7.68182C136.747 7.5161 137.252 7.43324 137.782 7.43324C138.644 7.43324 139.411 7.63684 140.083 8.04403C140.755 8.4465 141.286 9.00047 141.674 9.70597C142.062 10.4115 142.256 11.2187 142.256 12.1278C142.256 13.1127 142.027 13.9886 141.567 14.7557C141.113 15.5227 140.476 16.1241 139.657 16.5597C138.843 16.9905 137.896 17.2036 136.816 17.1989ZM136.802 14.7841C137.275 14.7841 137.699 14.6705 138.073 14.4432C138.447 14.2159 138.741 13.9081 138.954 13.5199C139.167 13.1316 139.273 12.696 139.273 12.2131C139.273 11.7301 139.167 11.2969 138.954 10.9134C138.746 10.5298 138.457 10.2244 138.087 9.99716C137.718 9.76989 137.297 9.65625 136.823 9.65625C136.468 9.65625 136.139 9.72254 135.836 9.85511C135.538 9.98769 135.275 10.1723 135.048 10.4091C134.825 10.6458 134.65 10.9205 134.522 11.233C134.394 11.5407 134.33 11.8698 134.33 12.2202C134.33 12.6889 134.437 13.1174 134.65 13.5057C134.868 13.8939 135.161 14.2041 135.531 14.4361C135.905 14.6681 136.328 14.7841 136.802 14.7841ZM144.437 17V14.7841L149.614 9.99006C150.055 9.56392 150.424 9.1804 150.722 8.83949C151.025 8.49858 151.255 8.16477 151.411 7.83807C151.567 7.50663 151.646 7.14915 151.646 6.76562C151.646 6.33949 151.549 5.97254 151.354 5.66477C151.16 5.35227 150.895 5.11316 150.559 4.94744C150.223 4.77699 149.842 4.69176 149.415 4.69176C148.97 4.69176 148.582 4.78172 148.251 4.96165C147.919 5.14157 147.664 5.39962 147.484 5.7358C147.304 6.07197 147.214 6.47206 147.214 6.93608H144.295C144.295 5.98437 144.51 5.15814 144.941 4.45739C145.372 3.75663 145.976 3.21449 146.752 2.83097C147.529 2.44744 148.424 2.25568 149.437 2.25568C150.478 2.25568 151.385 2.44034 152.157 2.80966C152.933 3.17424 153.537 3.68087 153.968 4.32955C154.399 4.97822 154.614 5.72159 154.614 6.55966C154.614 7.1089 154.505 7.65104 154.288 8.18608C154.075 8.72112 153.693 9.31534 153.144 9.96875C152.595 10.6174 151.821 11.3963 150.822 12.3054L148.698 14.3864V14.4858H154.806V17H144.437ZM162.617 17.1989C161.869 17.1941 161.147 17.0687 160.451 16.8224C159.759 16.5762 159.139 16.1761 158.59 15.6222C158.041 15.0682 157.605 14.3343 157.283 13.4205C156.966 12.5066 156.807 11.3845 156.807 10.054C156.812 8.83239 156.952 7.741 157.226 6.77983C157.506 5.81392 157.903 4.99479 158.419 4.32244C158.94 3.65009 159.563 3.13873 160.287 2.78835C161.012 2.43324 161.824 2.25568 162.723 2.25568C163.694 2.25568 164.551 2.44508 165.294 2.82386C166.038 3.19792 166.634 3.70691 167.084 4.35085C167.539 4.99479 167.813 5.71686 167.908 6.51705H164.875C164.757 6.01042 164.508 5.61269 164.13 5.32386C163.751 5.03504 163.282 4.89062 162.723 4.89062C161.776 4.89062 161.057 5.30256 160.564 6.12642C160.077 6.95028 159.828 8.07008 159.819 9.4858H159.918C160.136 9.05492 160.429 8.68797 160.799 8.38494C161.173 8.07718 161.596 7.8428 162.07 7.68182C162.548 7.5161 163.052 7.43324 163.583 7.43324C164.444 7.43324 165.212 7.63684 165.884 8.04403C166.556 8.4465 167.087 9.00047 167.475 9.70597C167.863 10.4115 168.057 11.2187 168.057 12.1278C168.057 13.1127 167.828 13.9886 167.368 14.7557C166.914 15.5227 166.277 16.1241 165.458 16.5597C164.643 16.9905 163.696 17.2036 162.617 17.1989ZM162.603 14.7841C163.076 14.7841 163.5 14.6705 163.874 14.4432C164.248 14.2159 164.542 13.9081 164.755 13.5199C164.968 13.1316 165.074 12.696 165.074 12.2131C165.074 11.7301 164.968 11.2969 164.755 10.9134C164.546 10.5298 164.257 10.2244 163.888 9.99716C163.519 9.76989 163.097 9.65625 162.624 9.65625C162.269 9.65625 161.94 9.72254 161.637 9.85511C161.338 9.98769 161.076 10.1723 160.848 10.4091C160.626 10.6458 160.451 10.9205 160.323 11.233C160.195 11.5407 160.131 11.8698 160.131 12.2202C160.131 12.6889 160.238 13.1174 160.451 13.5057C160.668 13.8939 160.962 14.2041 161.331 14.4361C161.705 14.6681 162.129 14.7841 162.603 14.7841ZM170.238 17V14.7841L175.415 9.99006C175.855 9.56392 176.225 9.1804 176.523 8.83949C176.826 8.49858 177.056 8.16477 177.212 7.83807C177.368 7.50663 177.446 7.14915 177.446 6.76562C177.446 6.33949 177.349 5.97254 177.155 5.66477C176.961 5.35227 176.696 5.11316 176.36 4.94744C176.024 4.77699 175.642 4.69176 175.216 4.69176C174.771 4.69176 174.383 4.78172 174.051 4.96165C173.72 5.14157 173.464 5.39962 173.284 5.7358C173.105 6.07197 173.015 6.47206 173.015 6.93608H170.096C170.096 5.98437 170.311 5.15814 170.742 4.45739C171.173 3.75663 171.776 3.21449 172.553 2.83097C173.329 2.44744 174.224 2.25568 175.238 2.25568C176.279 2.25568 177.186 2.44034 177.958 2.80966C178.734 3.17424 179.338 3.68087 179.769 4.32955C180.2 4.97822 180.415 5.72159 180.415 6.55966C180.415 7.1089 180.306 7.65104 180.088 8.18608C179.875 8.72112 179.494 9.31534 178.945 9.96875C178.396 10.6174 177.622 11.3963 176.623 12.3054L174.499 14.3864V14.4858H180.607V17H170.238Z" fill="#C10900"/>
</svg>
