<svg width="293" height="50" viewBox="0 0 293 50" fill="none" xmlns="http://www.w3.org/2000/svg">
<path d="M22 40L2 25L22 10" stroke="#D8D8D8" stroke-width="4" stroke-linejoin="round"/>
<path d="M42 40L22 25L42 10" stroke="#D8D8D8" stroke-opacity="0.8" stroke-width="4" stroke-linejoin="round"/>
<path opacity="0.8" d="M85.16 26.12C83.24 24.8 82.8 23.6 82.8 21.36V15.48C82.8 13.44 84.24 12 86.32 12H101.52V15.44L100.16 19.04H91.56V20.32L99.16 25.4C101.08 26.68 101.52 27.92 101.52 30.16V36.52C101.52 38.56 100.08 40 98.04 40H82.8V33H92.76V31.16L85.16 26.12ZM107.433 12H122.633V15.48L121.273 19.04H112.673V33H122.633V40H107.433C105.353 40 103.913 38.56 103.913 36.52V15.48C103.913 13.44 105.353 12 107.433 12ZM137.285 19.04H133.805V24.28H137.285V19.04ZM125.045 12H142.565C144.605 12 146.045 13.44 146.045 15.48V26.48C146.045 27.8 145.045 29.28 143.725 29.64L146.485 36.52V40H137.925L135.565 31.28H133.805V40H125.045V12ZM161.113 19.04H157.633V33H161.113V19.04ZM166.353 40H152.393C150.313 40 148.873 38.56 148.873 36.52V15.48C148.873 13.44 150.313 12 152.393 12H166.353C168.433 12 169.873 13.44 169.873 15.48V36.52C169.873 38.56 168.433 40 166.353 40ZM173.092 40V12H181.812V33H190.612V40H173.092ZM192.623 40V12H201.343V33H210.143V40H192.623Z" fill="#E00800"/>
<path d="M271 40L291 25L271 10" stroke="#E00800" stroke-width="4" stroke-linejoin="round"/>
<path d="M251 40L271 25L251 10" stroke="#E00800" stroke-opacity="0.8" stroke-width="4" stroke-linejoin="round"/>
</svg>
